<?xml version="1.0" standalone="no"?>
<!DOCTYPE svg PUBLIC "-//W3C//DTD SVG 1.1//EN" "http://www.w3.org/Graphics/SVG/1.1/DTD/svg11.dtd" >
<svg>
<metadata>
Created by FontForge 20110222 at Fri Dec  5 16:34:01 2014
 By deploy user
[c] Copyright 1993, 1999, 2000, Tobias Frere-Jones. Designed by Tobias Frere-Jones. Produced by The Font Bureau, Inc. All rights reserved.
</metadata>
<defs>
<font id="Interstate-BoldCondensed" horiz-adv-x="770" >
  <font-face 
    font-family="Interstate Bold Condensed"
    font-weight="700"
    font-stretch="condensed"
    units-per-em="1000"
    panose-1="2 0 5 6 3 0 0 2 0 4"
    ascent="800"
    descent="-200"
    x-height="525"
    cap-height="700"
    bbox="-67 -196 1205 910"
    underline-thickness="20"
    underline-position="-113"
    unicode-range="U+0020-FB02"
  />
<missing-glyph horiz-adv-x="230" 
 />
    <glyph glyph-name=".notdef" horiz-adv-x="230" 
 />
    <glyph glyph-name="NUL" horiz-adv-x="0" 
 />
    <glyph glyph-name="nonmarkingreturn" horiz-adv-x="230" 
 />
    <glyph glyph-name="space" unicode=" " horiz-adv-x="230" 
 />
    <glyph glyph-name="lslash" unicode="&#x142;" horiz-adv-x="272" 
d="M246 353l-53 -42v-311h-114v228l-53 -43v125l53 42v318l114 59v-294l53 43v-125z" />
    <glyph glyph-name="Scaron" unicode="&#x160;" horiz-adv-x="471" 
d="M443 189q0 -44 -14.5 -80.5t-41.5 -63t-66 -41.5t-88 -15q-71 0 -122 32.5t-87 77.5l85 91q32 -41 64.5 -60.5t64.5 -19.5q39 0 58.5 20.5t19.5 55.5q0 30 -23 56t-84 58q-39 20 -70 41t-52.5 47t-33 58.5t-11.5 76.5q0 39 14 73.5t39.5 60t62 40t80.5 14.5
q66 0 109.5 -25.5t81.5 -74.5l-83 -83q-15 17 -27.5 29t-25 19.5t-26.5 10.5t-32 3q-30 0 -48 -17.5t-18 -43.5q0 -16 5 -29t16.5 -26t30.5 -26t48 -28q45 -24 78 -46.5t54.5 -49t31.5 -59t10 -76.5zM396 910l-109 -160h-110l-109 160h88l77 -73l77 73h86z" />
    <glyph glyph-name="scaron" unicode="&#x161;" horiz-adv-x="414" 
d="M373 154q0 -81 -48.5 -123t-123.5 -42q-49 0 -89 14t-77 43l42 101q65 -46 126 -46q28 0 41.5 11.5t13.5 31.5q0 11 -4.5 19.5t-15.5 17.5t-29 18.5t-46 23.5q-57 28 -85.5 64.5t-28.5 97.5q0 35 12 63t33.5 47.5t51.5 30t65 10.5q42 0 77.5 -12t70.5 -36l-41 -96
q-34 18 -57.5 25t-52.5 7q-20 0 -32 -10t-12 -26q0 -9 3.5 -16.5t13.5 -15.5t27 -17.5t44 -22.5q58 -28 89.5 -64t31.5 -98zM365 755l-109 -160h-110l-109 160h88l77 -73l77 73h86z" />
    <glyph glyph-name="Yacute" unicode="&#xdd;" horiz-adv-x="520" 
d="M503 700l-181 -436v-264h-125v262l-180 438h138l54 -142q9 -23 17 -46.5t15 -45.5t12.5 -40.5t7.5 -30.5q3 12 8 31t12 41t15.5 45.5t16.5 45.5l54 142h136zM440 900l-145 -160h-97l87 160h155z" />
    <glyph glyph-name="yacute" unicode="&#xfd;" horiz-adv-x="452" 
d="M432 525l-200 -710h-109l53 194l-156 516h124l49 -196q5 -20 11 -44.5t11 -48.5t9.5 -44.5t6.5 -31.5q2 11 6 32t9 45t10 48.5t9 42.5l44 197h123zM403 751l-145 -160h-97l87 160h155z" />
    <glyph glyph-name="Thorn" unicode="&#xde;" horiz-adv-x="498" 
d="M474 367q0 -57 -19 -99t-50.5 -70.5t-72.5 -42.5t-86 -14h-56v-141h-125v700h125v-110h61q50 0 91 -14t70.5 -42t45.5 -70t16 -97zM349 365q0 44 -22 73.5t-77 29.5h-60v-205h62q48 0 72.5 27t24.5 75z" />
    <glyph glyph-name="thorn" unicode="&#xfe;" horiz-adv-x="464" 
d="M427 263q0 -60 -9.5 -110.5t-29 -86.5t-50.5 -56.5t-74 -20.5q-26 0 -50 11t-41 29v-163l-118 -59v863l118 59v-240q20 21 46 34t55 13q74 0 113.5 -66.5t39.5 -206.5zM307 259q0 87 -12 127t-49 40q-22 0 -42 -14t-31 -30v-238q12 -17 31 -31t44 -14q16 0 27 8t18 26.5
t10.5 49t3.5 76.5z" />
    <glyph glyph-name="Zcaron" unicode="&#x17d;" horiz-adv-x="469" 
d="M419 0h-382v111l203 390q14 26 26.5 48t23.5 40q-19 -1 -41 -1.5t-48 -0.5h-147v113h365v-111l-201 -390q-14 -26 -26.5 -48t-23.5 -40q19 1 41 1.5t48 0.5h162v-113zM399 905l-109 -160h-110l-109 160h88l77 -73l77 73h86z" />
    <glyph glyph-name="zcaron" unicode="&#x17e;" horiz-adv-x="415" 
d="M370 0h-332v103l139 210q20 31 39.5 59t35.5 49q-23 -1 -51 -1.5t-60 -0.5h-88v106h317v-103l-136 -210q-20 -32 -39.5 -59t-36.5 -49q24 1 52 1.5t60 0.5h100v-106zM371 755l-109 -160h-110l-109 160h88l77 -73l77 73h86z" />
    <glyph glyph-name="onehalf" unicode="&#xbd;" 
d="M750 350l-176 -133q-8 -6 -15 -5.5t-11 3.5q-15 10 -9 31l14 50h-116v-114l51 14q21 6 30 -9q3 -4 3 -11t-6 -15l-130 -176l-133 176q-6 8 -5.5 15t3.5 11q10 15 31 9l50 -14v114h-114l14 -50q6 -21 -9 -31q-4 -3 -11 -3.5t-15 5.5l-176 133l176 130q8 6 15 6t11 -3
q15 -9 9 -30l-14 -51h114v116l-50 -14q-21 -6 -31 9q-3 4 -3.5 11t5.5 15l133 176l130 -176q6 -8 6 -15t-3 -11q-9 -15 -30 -9l-51 14v-116h116l-14 51q-6 21 9 30q4 3 11 3t15 -6z" />
    <glyph glyph-name="onequarter" unicode="&#xbc;" 
d="M750 350l-176 -133q-8 -6 -15 -5.5t-11 3.5q-15 10 -9 31l14 50h-116v-114l51 14q21 6 30 -9q3 -4 3 -11t-6 -15l-130 -176l-133 176q-6 8 -5.5 15t3.5 11q10 15 31 9l50 -14v114h-114l14 -50q6 -21 -9 -31q-4 -3 -11 -3.5t-15 5.5l-176 133l176 130q8 6 15 6t11 -3
q15 -9 9 -30l-14 -51h114v116l-50 -14q-21 -6 -31 9q-3 4 -3.5 11t5.5 15l133 176l130 -176q6 -8 6 -15t-3 -11q-9 -15 -30 -9l-51 14v-116h116l-14 51q-6 21 9 30q4 3 11 3t15 -6z" />
    <glyph glyph-name="onesuperior" unicode="&#xb9;" 
d="M750 350l-176 -133q-8 -6 -15 -5.5t-11 3.5q-15 10 -9 31l14 50h-116v-114l51 14q21 6 30 -9q3 -4 3 -11t-6 -15l-130 -176l-133 176q-6 8 -5.5 15t3.5 11q10 15 31 9l50 -14v114h-114l14 -50q6 -21 -9 -31q-4 -3 -11 -3.5t-15 5.5l-176 133l176 130q8 6 15 6t11 -3
q15 -9 9 -30l-14 -51h114v116l-50 -14q-21 -6 -31 9q-3 4 -3.5 11t5.5 15l133 176l130 -176q6 -8 6 -15t-3 -11q-9 -15 -30 -9l-51 14v-116h116l-14 51q-6 21 9 30q4 3 11 3t15 -6z" />
    <glyph glyph-name="threequarters" unicode="&#xbe;" 
d="M750 350l-176 -133q-8 -6 -15 -5.5t-11 3.5q-15 10 -9 31l14 50h-116v-114l51 14q21 6 30 -9q3 -4 3 -11t-6 -15l-130 -176l-133 176q-6 8 -5.5 15t3.5 11q10 15 31 9l50 -14v114h-114l14 -50q6 -21 -9 -31q-4 -3 -11 -3.5t-15 5.5l-176 133l176 130q8 6 15 6t11 -3
q15 -9 9 -30l-14 -51h114v116l-50 -14q-21 -6 -31 9q-3 4 -3.5 11t5.5 15l133 176l130 -176q6 -8 6 -15t-3 -11q-9 -15 -30 -9l-51 14v-116h116l-14 51q-6 21 9 30q4 3 11 3t15 -6z" />
    <glyph glyph-name="threesuperior" unicode="&#xb3;" 
d="M750 350l-176 -133q-8 -6 -15 -5.5t-11 3.5q-15 10 -9 31l14 50h-116v-114l51 14q21 6 30 -9q3 -4 3 -11t-6 -15l-130 -176l-133 176q-6 8 -5.5 15t3.5 11q10 15 31 9l50 -14v114h-114l14 -50q6 -21 -9 -31q-4 -3 -11 -3.5t-15 5.5l-176 133l176 130q8 6 15 6t11 -3
q15 -9 9 -30l-14 -51h114v116l-50 -14q-21 -6 -31 9q-3 4 -3.5 11t5.5 15l133 176l130 -176q6 -8 6 -15t-3 -11q-9 -15 -30 -9l-51 14v-116h116l-14 51q-6 21 9 30q4 3 11 3t15 -6z" />
    <glyph glyph-name="twosuperior" unicode="&#xb2;" 
d="M750 350l-176 -133q-8 -6 -15 -5.5t-11 3.5q-15 10 -9 31l14 50h-116v-114l51 14q21 6 30 -9q3 -4 3 -11t-6 -15l-130 -176l-133 176q-6 8 -5.5 15t3.5 11q10 15 31 9l50 -14v114h-114l14 -50q6 -21 -9 -31q-4 -3 -11 -3.5t-15 5.5l-176 133l176 130q8 6 15 6t11 -3
q15 -9 9 -30l-14 -51h114v116l-50 -14q-21 -6 -31 9q-3 4 -3.5 11t5.5 15l133 176l130 -176q6 -8 6 -15t-3 -11q-9 -15 -30 -9l-51 14v-116h116l-14 51q-6 21 9 30q4 3 11 3t15 -6z" />
    <glyph glyph-name="brokenbar" unicode="&#xa6;" 
d="M750 350l-176 -133q-8 -6 -15 -5.5t-11 3.5q-15 10 -9 31l14 50h-116v-114l51 14q21 6 30 -9q3 -4 3 -11t-6 -15l-130 -176l-133 176q-6 8 -5.5 15t3.5 11q10 15 31 9l50 -14v114h-114l14 -50q6 -21 -9 -31q-4 -3 -11 -3.5t-15 5.5l-176 133l176 130q8 6 15 6t11 -3
q15 -9 9 -30l-14 -51h114v116l-50 -14q-21 -6 -31 9q-3 4 -3.5 11t5.5 15l133 176l130 -176q6 -8 6 -15t-3 -11q-9 -15 -30 -9l-51 14v-116h116l-14 51q-6 21 9 30q4 3 11 3t15 -6z" />
    <glyph glyph-name="minus" unicode="&#x2212;" 
d="M750 350l-176 -133q-8 -6 -15 -5.5t-11 3.5q-15 10 -9 31l14 50h-116v-114l51 14q21 6 30 -9q3 -4 3 -11t-6 -15l-130 -176l-133 176q-6 8 -5.5 15t3.5 11q10 15 31 9l50 -14v114h-114l14 -50q6 -21 -9 -31q-4 -3 -11 -3.5t-15 5.5l-176 133l176 130q8 6 15 6t11 -3
q15 -9 9 -30l-14 -51h114v116l-50 -14q-21 -6 -31 9q-3 4 -3.5 11t5.5 15l133 176l130 -176q6 -8 6 -15t-3 -11q-9 -15 -30 -9l-51 14v-116h116l-14 51q-6 21 9 30q4 3 11 3t15 -6z" />
    <glyph glyph-name="multiply" unicode="&#xd7;" 
d="M750 350l-176 -133q-8 -6 -15 -5.5t-11 3.5q-15 10 -9 31l14 50h-116v-114l51 14q21 6 30 -9q3 -4 3 -11t-6 -15l-130 -176l-133 176q-6 8 -5.5 15t3.5 11q10 15 31 9l50 -14v114h-114l14 -50q6 -21 -9 -31q-4 -3 -11 -3.5t-15 5.5l-176 133l176 130q8 6 15 6t11 -3
q15 -9 9 -30l-14 -51h114v116l-50 -14q-21 -6 -31 9q-3 4 -3.5 11t5.5 15l133 176l130 -176q6 -8 6 -15t-3 -11q-9 -15 -30 -9l-51 14v-116h116l-14 51q-6 21 9 30q4 3 11 3t15 -6z" />
    <glyph glyph-name="Lslash" unicode="&#x141;" horiz-adv-x="458" 
d="M424 0h-344v227l-45 -37v125l45 37v348h122v-259l87 69v-125l-87 -69v-194h222v-122z" />
    <glyph glyph-name="exclam" unicode="!" horiz-adv-x="265" 
d="M195 364l-19 -154h-87l-19 154v336h125v-336zM213 70q0 -33 -24 -57t-57 -24t-57 24t-24 57t24 57t57 24t57 -24t24 -57z" />
    <glyph glyph-name="quotedbl" unicode="&#x22;" horiz-adv-x="471" 
d="M418 700l-32 -327h-80l-32 327h144zM197 700l-32 -327h-80l-32 327h144z" />
    <glyph glyph-name="numbersign" unicode="#" horiz-adv-x="660" 
d="M615 140h-100v-140h-118v140h-134v-140h-118v140h-100v108h100v204h-100v108h100v140h118v-140h134v140h118v-140h100v-108h-100v-204h100v-108zM397 248v204h-134v-204h134z" />
    <glyph glyph-name="dollar" unicode="$" horiz-adv-x="471" 
d="M443 194q0 -71 -37 -120t-104 -67v-87h-126v85q-49 12 -86 40.5t-66 63.5l85 86q32 -41 64.5 -60.5t64.5 -19.5q39 0 58.5 20.5t19.5 55.5q0 30 -23 53.5t-84 55.5q-39 20 -70 40.5t-52.5 45.5t-33 56.5t-11.5 75.5q0 64 35.5 111t98.5 64v87h126v-87q39 -10 69.5 -33.5
t57.5 -58.5l-83 -78q-15 17 -27.5 29t-25 19.5t-26.5 10.5t-32 3q-30 0 -48 -17.5t-18 -43.5q0 -16 5 -28.5t16.5 -24t30.5 -24t48 -27.5q45 -24 78 -46t54.5 -47t31.5 -57t10 -76z" />
    <glyph glyph-name="percent" unicode="%" horiz-adv-x="861" 
d="M346 494q0 -100 -41.5 -159t-119.5 -59t-118 58t-40 158q0 102 40.5 160.5t119.5 58.5q81 0 120 -58.5t39 -158.5zM660 700l-359 -700h-101l359 700h101zM834 207q0 -100 -41.5 -159t-119.5 -59t-118 58t-40 158q0 102 40.5 160.5t119.5 58.5q81 0 120 -58.5t39 -158.5z
M244 492q0 63 -12 96t-46 33t-45.5 -32t-11.5 -95t12 -96t46 -33t45.5 35t11.5 92zM732 205q0 63 -12 96t-46 33t-45.5 -32t-11.5 -95t12 -96t46 -33t45.5 35t11.5 92z" />
    <glyph glyph-name="ampersand" unicode="&#x26;" horiz-adv-x="542" 
d="M533 0h-134l-34 50q-30 -29 -66 -45t-77 -16q-96 0 -143 50t-47 138q0 60 27.5 107t85.5 89l-24 36q-23 33 -36.5 64.5t-13.5 70.5q0 40 13.5 71.5t37.5 52.5t57 32t73 11q54 0 95 -14.5t82 -44.5l-58 -102q-29 22 -57.5 33t-62.5 11q-25 0 -40 -15t-15 -36
q0 -24 8 -40.5t25 -42.5l135 -205q8 23 14.5 47.5t11.5 51.5l94 -42q-17 -92 -50 -162zM304 140l-99 145q-32 -26 -43.5 -51.5t-11.5 -52.5q0 -35 19.5 -56t55.5 -21q45 0 79 36z" />
    <glyph glyph-name="quotesingle" unicode="'" horiz-adv-x="255" 
d="M202 700l-32 -327h-85l-32 327h149z" />
    <glyph glyph-name="parenleft" unicode="(" horiz-adv-x="325" 
d="M293 -57l-70 -53q-36 35 -68.5 78.5t-57 95.5t-38.5 111t-14 125q0 68 13.5 127.5t37.5 111t56.5 95.5t70.5 82l70 -53q-56 -67 -87.5 -155t-31.5 -203q0 -62 8.5 -113.5t24 -95.5t37.5 -81.5t49 -71.5z" />
    <glyph glyph-name="parenright" unicode=")" horiz-adv-x="325" 
d="M280 306q0 -68 -13.5 -127.5t-37.5 -111t-56.5 -96t-70.5 -81.5l-70 53q56 67 87.5 155t31.5 203q0 62 -8.5 113.5t-24 95.5t-37.5 81.5t-49 71.5l70 53q36 -35 68.5 -78.5t57 -95.5t38.5 -111t14 -125z" />
    <glyph glyph-name="asterisk" unicode="*" horiz-adv-x="440" 
d="M415 444l-48 -82l-109 73l10 -131h-96l9 133l-110 -74l-46 81l127 58l-127 58l46 82l110 -74l-9 132h96l-10 -131l109 74l48 -82l-129 -58z" />
    <glyph glyph-name="plus" unicode="+" horiz-adv-x="513" 
d="M478 287h-162v-178h-119v178h-162v114h162v178h119v-178h162v-114z" />
    <glyph glyph-name="comma" unicode="," horiz-adv-x="246" 
d="M205 147l-74 -259h-82l13 259h143z" />
    <glyph glyph-name="hyphen" unicode="-" horiz-adv-x="345" 
d="M300 302h-255v122h255v-122z" />
    <glyph glyph-name="period" unicode="." horiz-adv-x="246" 
d="M206 72q0 -34 -24.5 -58.5t-58.5 -24.5t-58.5 24.5t-24.5 58.5t24.5 58.5t58.5 24.5t58.5 -24.5t24.5 -58.5z" />
    <glyph glyph-name="slash" unicode="/" horiz-adv-x="405" 
d="M403 790l-276 -880h-125l276 880h125z" />
    <glyph glyph-name="zero" unicode="0" horiz-adv-x="528" 
d="M485 351q0 -76 -12 -142t-38.5 -115t-69 -77t-103.5 -28t-103.5 28t-68.5 76.5t-38 114.5t-12 141q0 76 12 142t39 115t69.5 77t103.5 28t103 -28t68 -76.5t38 -114.5t12 -141zM358 349q0 119 -22.5 179.5t-73.5 60.5t-73 -59.5t-22 -178.5t23 -179.5t74 -60.5
q50 0 72 59.5t22 178.5z" />
    <glyph glyph-name="one" unicode="1" horiz-adv-x="315" 
d="M242 0h-125v521h-95v78q52 5 77 33.5t36 67.5h107v-700z" />
    <glyph glyph-name="two" unicode="2" horiz-adv-x="520" 
d="M446 0h-401q3 80 17 139t39.5 104.5t62.5 82t87 72.5q36 26 51 50t15 56q0 82 -80 82q-33 0 -60 -17t-52 -46l-78 91q35 45 82.5 71t112.5 26q91 0 146.5 -48.5t55.5 -140.5q0 -36 -8.5 -66t-24 -55t-36.5 -46t-46 -40q-36 -27 -62 -50t-43.5 -45.5t-26.5 -46t-11 -51.5
h260v-122z" />
    <glyph glyph-name="three" unicode="3" horiz-adv-x="508" 
d="M456 210q0 -103 -59 -162t-165 -59q-71 0 -122 31t-93 97l99 70q29 -42 57 -58.5t63 -16.5q45 0 69.5 26t24.5 69q0 54 -31.5 77.5t-80.5 23.5h-48v121h49q44 0 67.5 19t23.5 57q0 35 -18.5 58.5t-63.5 23.5q-29 0 -51.5 -12.5t-49.5 -39.5l-85 85q19 21 38.5 38t42.5 29
t50.5 18t62.5 6q45 0 82 -13.5t63.5 -38.5t40.5 -60.5t14 -78.5q0 -60 -27 -94.5t-71 -50.5q23 -6 44 -19t37.5 -33t26.5 -48t10 -65z" />
    <glyph glyph-name="four" unicode="4" horiz-adv-x="510" 
d="M485 143h-72v-143h-116v143h-275v99l258 458h133v-450h72v-107zM300 536q-8 -20 -20 -46t-29 -58l-55 -102q-11 -20 -24 -42.5t-23 -38.5q15 0 37 0.5t45 0.5h66v169q0 38 0.5 64.5t2.5 52.5z" />
    <glyph glyph-name="five" unicode="5" horiz-adv-x="497" 
d="M457 236q0 -118 -62 -182.5t-175 -64.5q-54 0 -104.5 20.5t-88.5 55.5l70 95q36 -27 64.5 -37.5t64.5 -10.5q54 0 79.5 31.5t25.5 85.5q0 53 -22 78.5t-60 25.5q-47 0 -88 -39l-102 48l17 358h345v-121h-234l-9 -153q19 12 41.5 19t57.5 7q38 0 71 -13.5t57 -40.5
t38 -67.5t14 -94.5z" />
    <glyph glyph-name="six" unicode="6" horiz-adv-x="512" 
d="M474 234q0 -60 -16 -105.5t-45 -76.5t-69 -47t-89 -16q-46 0 -85.5 16t-68 50t-45 88t-16.5 129q0 90 20.5 167t63.5 135t110.5 94t160.5 43v-125q-54 -3 -93.5 -20t-67 -43.5t-44 -58.5t-25.5 -65q26 29 55.5 41t74.5 12q34 0 66.5 -14t57.5 -41t40 -68t15 -95zM352 226
q0 49 -22.5 81t-68.5 32q-26 0 -44.5 -9t-30.5 -24t-18 -35t-6 -42q0 -25 5 -47.5t17 -39.5t31 -27t47 -10q23 0 40 10t28 26.5t16.5 38.5t5.5 46z" />
    <glyph glyph-name="seven" unicode="7" horiz-adv-x="459" 
d="M423 575q-43 -56 -74.5 -118t-51.5 -132.5t-30 -151t-10 -173.5h-120q0 176 38.5 321t117.5 263h-266v116h396v-125z" />
    <glyph glyph-name="eight" unicode="8" horiz-adv-x="518" 
d="M478 209q0 -47 -13.5 -87t-41 -69.5t-68.5 -46.5t-96 -17t-96 17t-68.5 46.5t-41 69.5t-13.5 87q0 69 29.5 109.5t70.5 59.5q-30 16 -51.5 50.5t-21.5 82.5q0 43 12.5 80t36.5 63.5t60 41.5t83 15t83 -15t60 -41.5t36.5 -63.5t12.5 -80q0 -48 -20.5 -82t-52.5 -51
q41 -19 70.5 -59.5t29.5 -109.5zM337 512q0 35 -17 60.5t-61 25.5t-61 -25.5t-17 -60.5t20 -60.5t58 -25.5t58 25.5t20 60.5zM358 209q0 48 -25.5 76t-73.5 28t-73.5 -28t-25.5 -76q0 -45 26 -75t73 -30t73 30t26 75z" />
    <glyph glyph-name="nine" unicode="9" horiz-adv-x="512" 
d="M472 428q0 -90 -20.5 -167t-63.5 -135t-110.5 -94t-160.5 -43v125q54 3 93.5 20t67 43.5t44 58.5t25.5 65q-26 -29 -55.5 -41t-74.5 -12q-35 0 -67 14t-57 41t-40 68t-15 95q0 60 16 105.5t45 76.5t69 47t89 16q46 0 85.5 -16t68 -50t45 -88t16.5 -129zM350 471
q0 25 -5 47.5t-17 39.5t-31 27t-47 10q-23 0 -40 -10t-28 -26.5t-16.5 -38.5t-5.5 -46q0 -49 22.5 -81t68.5 -32q26 0 44.5 9t30.5 24t18 35t6 42z" />
    <glyph glyph-name="colon" unicode=":" horiz-adv-x="246" 
d="M206 453q0 -34 -24.5 -58.5t-58.5 -24.5t-58.5 24.5t-24.5 58.5t24.5 58.5t58.5 24.5t58.5 -24.5t24.5 -58.5zM206 72q0 -34 -24.5 -58.5t-58.5 -24.5t-58.5 24.5t-24.5 58.5t24.5 58.5t58.5 24.5t58.5 -24.5t24.5 -58.5z" />
    <glyph glyph-name="semicolon" unicode=";" horiz-adv-x="246" 
d="M206 453q0 -34 -24.5 -58.5t-58.5 -24.5t-58.5 24.5t-24.5 58.5t24.5 58.5t58.5 24.5t58.5 -24.5t24.5 -58.5zM199 147l-74 -259h-82l13 259h143z" />
    <glyph glyph-name="less" unicode="&#x3c;" horiz-adv-x="410" 
d="M353 28l-311 269v94l311 269v-159l-190 -156l190 -157v-160z" />
    <glyph glyph-name="equal" unicode="=" horiz-adv-x="523" 
d="M463 398h-403v125h403v-125zM463 165h-403v125h403v-125z" />
    <glyph glyph-name="greater" unicode="&#x3e;" horiz-adv-x="410" 
d="M368 297l-311 -269v159l190 156l-190 157v160l311 -269v-94z" />
    <glyph glyph-name="question" unicode="?" horiz-adv-x="444" 
d="M415 527q0 -61 -26 -100.5t-68 -73.5q-31 -25 -46 -57t-15 -86h-118q0 41 5 72.5t17.5 58t33 49.5t51.5 47q19 15 30.5 36.5t11.5 42.5q0 32 -20.5 52t-63.5 20q-32 0 -60.5 -18.5t-54.5 -51.5l-83 79q38 52 87 83t123 31q42 0 77.5 -11t62 -34t41.5 -57.5t15 -81.5z
M282 70q0 -33 -24 -57t-57 -24t-57 24t-24 57t24 57t57 24t57 -24t24 -57z" />
    <glyph glyph-name="at" unicode="@" horiz-adv-x="636" 
d="M596 360q0 -46 -6 -84.5t-19.5 -66t-36.5 -42.5t-56 -15q-29 0 -50.5 16.5t-30.5 36.5q-16 -23 -43.5 -40t-55.5 -17q-23 0 -45.5 8.5t-39.5 26.5t-27.5 45t-10.5 64q0 34 10 59.5t26.5 42t38 24.5t44.5 8q20 0 38.5 -5.5t33.5 -13.5v39q0 26 -14 37.5t-43 11.5
q-19 0 -36.5 -6t-38.5 -23l-30 62q26 20 55 29.5t56 9.5q62 0 95.5 -31t33.5 -96v-174q0 -25 7.5 -40.5t29.5 -15.5q30 0 44 35t14 117q0 69 -16.5 123.5t-45.5 91.5t-70 56.5t-89 19.5q-50 0 -90.5 -21.5t-69 -61t-44 -95t-15.5 -123.5t15.5 -124.5t44.5 -96.5t70 -62
t91 -22q25 0 49.5 5t51.5 20l22 -47q-35 -23 -63.5 -29.5t-61.5 -6.5q-60 0 -111 25.5t-88 73t-58 114t-21 148.5t21 148.5t58 114t88 73t111 25.5q61 0 112.5 -25t88 -71t57 -111t20.5 -144zM366 271v58q-10 11 -26 18.5t-38 7.5q-26 0 -37 -17.5t-11 -43.5q0 -32 10 -52
t42 -20q19 0 35 13t25 36z" />
    <glyph glyph-name="A" unicode="A" horiz-adv-x="536" 
d="M508 0h-129l-33 146h-157l-33 -146h-128l179 700h122zM319 263l-19 83q-5 20 -10 44.5t-9.5 48t-8 44t-5.5 33.5q-2 -14 -5.5 -33.5t-7.5 -42.5t-9 -47t-10 -45l-19 -85h103z" />
    <glyph glyph-name="B" unicode="B" horiz-adv-x="513" 
d="M479 217q0 -109 -59.5 -163t-172.5 -54h-182v700h189q97 0 152.5 -49.5t55.5 -137.5q0 -45 -22 -82t-64 -55q42 -17 72.5 -55.5t30.5 -103.5zM338 508q0 36 -18.5 56.5t-64.5 20.5h-68v-153h71q46 0 63 23t17 53zM355 214q0 55 -25 80.5t-80 25.5h-63v-205h67
q54 0 77.5 27.5t23.5 71.5z" />
    <glyph glyph-name="C" unicode="C" horiz-adv-x="500" 
d="M468 168q-25 -87 -72.5 -133t-128.5 -46q-58 0 -101 28t-71 76.5t-41.5 114.5t-13.5 141q0 76 14 142t42.5 115t71.5 77t101 28q45 0 77.5 -13.5t56 -37t39 -56t25.5 -70.5l-117 -38q-14 48 -31 69t-52 21q-51 0 -75 -61.5t-24 -173.5t25 -174.5t76 -62.5q16 0 28.5 5
t23 16.5t20 30.5t19.5 48z" />
    <glyph glyph-name="D" unicode="D" horiz-adv-x="530" 
d="M490 351q0 -92 -19 -158.5t-54.5 -109.5t-85.5 -63t-111 -20h-155v700h158q63 0 112.5 -20t84 -62.5t52.5 -108.5t18 -158zM362 349q0 48 -6 90t-21.5 73t-42.5 48.5t-69 17.5h-33v-456h33q42 0 69 17.5t42.5 48t21.5 72t6 89.5z" />
    <glyph glyph-name="E" unicode="E" horiz-adv-x="476" 
d="M433 0h-368v700h359v-120h-234v-148h157v-118h-157v-194h243v-120z" />
    <glyph glyph-name="F" unicode="F" horiz-adv-x="464" 
d="M434 579h-244v-155h164v-121h-164v-303h-125v700h369v-121z" />
    <glyph glyph-name="G" unicode="G" horiz-adv-x="538" 
d="M494 253q0 -127 -56 -195.5t-166 -68.5q-61 0 -105 28t-72 76.5t-41.5 114.5t-13.5 141q0 76 13.5 142t42 115t73 77t105.5 28q80 0 135 -43t78 -134l-117 -38q-14 50 -38 70t-60 20q-57 0 -80.5 -61.5t-23.5 -173.5t24.5 -174.5t81.5 -62.5t78 32t21 110h-100v117h221
v-120z" />
    <glyph glyph-name="H" unicode="H" horiz-adv-x="540" 
d="M475 0h-125v302h-160v-302h-125v700h125v-276h160v276h125v-700z" />
    <glyph glyph-name="I" unicode="I" horiz-adv-x="265" 
d="M195 0h-125v700h125v-700z" />
    <glyph glyph-name="J" unicode="J" horiz-adv-x="480" 
d="M418 270q0 -66 -11 -118t-35 -88.5t-62.5 -55.5t-94.5 -19q-85 0 -135.5 53.5t-61.5 153.5l119 36q5 -54 23.5 -86.5t57.5 -32.5t57 33t18 120v434h125v-430z" />
    <glyph glyph-name="K" unicode="K" horiz-adv-x="524" 
d="M506 0h-140l-113 301l-63 -113v-188h-125v700h125v-207q0 -31 -0.5 -57.5t-1.5 -49.5l26 52t29 56l109 206h133l-149 -262z" />
    <glyph glyph-name="L" unicode="L" horiz-adv-x="443" 
d="M409 0h-344v700h125v-578h219v-122z" />
    <glyph glyph-name="M" unicode="M" horiz-adv-x="640" 
d="M575 0h-114v226q0 63 0.5 118t1.5 94q-11 -38 -27 -93t-36 -115l-81 -248l-81 248q-20 60 -36 115t-27 93q1 -39 1.5 -94t0.5 -118v-226h-112v700h126l83 -259q16 -49 29 -91t18 -67q5 26 18.5 68.5t28.5 89.5l83 259h124v-700z" />
    <glyph glyph-name="N" unicode="N" horiz-adv-x="544" 
d="M479 0h-120l-129 312q-14 33 -28.5 72t-24.5 70q0 -16 0.5 -36.5t1 -42.5t0.5 -43v-37v-295h-114v700h126l123 -307q6 -16 13.5 -35t15 -39t14.5 -38.5t12 -33.5q0 16 -1 37.5t-1.5 44t-1 43.5t-0.5 38v290h114v-700z" />
    <glyph glyph-name="O" unicode="O" horiz-adv-x="545" 
d="M505 351q0 -76 -13.5 -142t-42 -115t-72.5 -77t-105 -28t-105 28t-72 76.5t-41.5 114.5t-13.5 141q0 76 13.5 142t42 115t73 77t105.5 28t104.5 -28t71.5 -76.5t41.5 -114.5t13.5 -141zM377 349q0 112 -24.5 174.5t-80.5 62.5q-57 0 -80.5 -61.5t-23.5 -173.5
t24.5 -174.5t81.5 -62.5q56 0 79.5 61.5t23.5 173.5z" />
    <glyph glyph-name="P" unicode="P" horiz-adv-x="498" 
d="M474 477q0 -57 -19 -99t-50.5 -70.5t-72.5 -42.5t-86 -14h-56v-251h-125v700h186q50 0 91 -14t70.5 -42t45.5 -70t16 -97zM349 475q0 44 -22 73.5t-77 29.5h-60v-205h62q48 0 72.5 27t24.5 75z" />
    <glyph glyph-name="Q" unicode="Q" horiz-adv-x="545" 
d="M505 351q0 -87 -21.5 -159t-59.5 -122l49 -81l-85 -52l-41 69q-37 -17 -75 -17q-61 0 -105 28t-72 76.5t-41.5 114.5t-13.5 141q0 76 13.5 142t42 115t73 77t105.5 28t104.5 -28t71.5 -76.5t41.5 -114.5t13.5 -141zM377 349q0 112 -24.5 174.5t-80.5 62.5
q-57 0 -80.5 -61.5t-23.5 -173.5q0 -56 6 -101t19 -77t33 -49.5t48 -17.5q8 0 12 1l-50 83l85 52l38 -64q9 29 13.5 70t4.5 101z" />
    <glyph glyph-name="R" unicode="R" horiz-adv-x="510" 
d="M476 0h-136l-109 266h-41v-266h-125v700h186q102 0 162.5 -54.5t60.5 -163.5q0 -74 -33.5 -120.5t-84.5 -70.5zM349 480q0 48 -23.5 73t-80.5 25h-55v-195h62q97 0 97 97z" />
    <glyph glyph-name="S" unicode="S" horiz-adv-x="471" 
d="M443 189q0 -44 -14.5 -80.5t-41.5 -63t-66 -41.5t-88 -15q-71 0 -122 32.5t-87 77.5l85 91q32 -41 64.5 -60.5t64.5 -19.5q39 0 58.5 20.5t19.5 55.5q0 30 -23 56t-84 58q-39 20 -70 41t-52.5 47t-33 58.5t-11.5 76.5q0 39 14 73.5t39.5 60t62 40t80.5 14.5
q66 0 109.5 -25.5t81.5 -74.5l-83 -83q-15 17 -27.5 29t-25 19.5t-26.5 10.5t-32 3q-30 0 -48 -17.5t-18 -43.5q0 -16 5 -29t16.5 -26t30.5 -26t48 -28q45 -24 78 -46.5t54.5 -49t31.5 -59t10 -76.5z" />
    <glyph glyph-name="T" unicode="T" horiz-adv-x="465" 
d="M440 580h-145v-580h-125v580h-145v120h415v-120z" />
    <glyph glyph-name="U" unicode="U" horiz-adv-x="540" 
d="M478 280q0 -68 -11 -122t-35.5 -91.5t-64 -57.5t-97.5 -20q-56 0 -95.5 20.5t-64.5 58.5t-36.5 91.5t-11.5 118.5v422h125v-422q0 -91 20.5 -128t63.5 -37q44 0 63 37t19 128v422h125v-420z" />
    <glyph glyph-name="V" unicode="V" horiz-adv-x="512" 
d="M485 700l-167 -700h-122l-169 700h129l68 -338q4 -20 9 -45.5l10 -51t8.5 -47.5t5.5 -34q1 12 5 34t9 48t10 51.5t9 44.5l67 338h128z" />
    <glyph glyph-name="W" unicode="W" horiz-adv-x="659" 
d="M639 700l-113 -700h-108l-59 294q-11 51 -18.5 95.5t-12.5 80.5q-5 -37 -12.5 -81t-18.5 -95l-59 -294h-105l-113 700h118l34 -261q3 -19 6 -45.5t6 -54.5t5.5 -54t4.5 -44q2 18 6 44t9 54t9.5 54.5t8.5 45.5l51 261h103l51 -261q4 -19 9 -45.5t9.5 -54.5t9 -54t6.5 -44
q2 18 4.5 44t5.5 54t6 54.5t6 45.5l34 261h117z" />
    <glyph glyph-name="X" unicode="X" horiz-adv-x="514" 
d="M492 0h-135l-58 132q-11 23 -22.5 54.5t-19.5 52.5q-7 -21 -19 -52.5t-23 -54.5l-58 -132h-135l167 359l-158 341h135l49 -112q11 -23 23 -54.5t19 -52.5q8 21 19.5 52.5t22.5 54.5l49 112h135l-159 -340z" />
    <glyph glyph-name="Y" unicode="Y" horiz-adv-x="520" 
d="M503 700l-181 -436v-264h-125v262l-180 438h138l54 -142q9 -23 17 -46.5t15 -45.5t12.5 -40.5t7.5 -30.5q3 12 8 31t12 41t15.5 45.5t16.5 45.5l54 142h136z" />
    <glyph glyph-name="Z" unicode="Z" horiz-adv-x="469" 
d="M419 0h-382v111l203 390q14 26 26.5 48t23.5 40q-19 -1 -41 -1.5t-48 -0.5h-147v113h365v-111l-201 -390q-14 -26 -26.5 -48t-23.5 -40q19 1 41 1.5t48 0.5h162v-113z" />
    <glyph glyph-name="bracketleft" unicode="[" horiz-adv-x="365" 
d="M312 -110h-237v810h237v-100h-114v-610h114v-100z" />
    <glyph glyph-name="backslash" unicode="\" horiz-adv-x="405" 
d="M403 -90h-125l-276 880h125z" />
    <glyph glyph-name="bracketright" unicode="]" horiz-adv-x="365" 
d="M290 -110h-237v100h114v610h-114v100h237v-810z" />
    <glyph glyph-name="asciicircum" unicode="^" horiz-adv-x="464" 
d="M434 382h-122l-81 196l-81 -196h-120l143 318h118z" />
    <glyph glyph-name="underscore" unicode="_" horiz-adv-x="380" 
d="M380 -177h-380v105h380v-105z" />
    <glyph glyph-name="grave" unicode="`" horiz-adv-x="400" 
d="M307 595h-97l-145 160h155z" />
    <glyph glyph-name="a" unicode="a" horiz-adv-x="444" 
d="M394 0h-118v36q-18 -23 -43 -35t-51 -12q-69 0 -112 49t-43 134q0 40 12 72.5t33.5 55t51 35t64.5 12.5t53 -5t35 -16v40q0 28 -14 46.5t-49 18.5q-33 0 -57 -7.5t-49 -24.5l-48 86q36 25 75 38t87 13q92 0 132.5 -44t40.5 -131v-361zM276 138v84q-14 12 -29.5 18.5
t-42.5 6.5q-25 0 -41 -20t-16 -53q0 -38 15.5 -59t44.5 -21q21 0 39.5 12.5t29.5 31.5z" />
    <glyph glyph-name="b" unicode="b" horiz-adv-x="464" 
d="M427 263q0 -60 -9.5 -110.5t-29 -86.5t-50.5 -56.5t-74 -20.5q-26 0 -50 11t-41 29v-29h-118v670l118 59v-240q20 21 46 34t55 13q74 0 113.5 -66.5t39.5 -206.5zM307 259q0 87 -12 127t-49 40q-22 0 -42 -14t-31 -30v-238q12 -17 31 -31t44 -14q16 0 27 8t18 26.5
t10.5 49t3.5 76.5z" />
    <glyph glyph-name="c" unicode="c" horiz-adv-x="430" 
d="M399 417l-95 -64q-14 32 -31 51.5t-43 19.5q-40 0 -57.5 -43.5t-17.5 -117.5t18.5 -118t60.5 -44q26 0 44.5 22t31.5 55l87 -63q-23 -55 -63 -90.5t-101 -35.5q-44 0 -80 17.5t-62.5 52t-41 85.5t-14.5 117t14.5 117.5t41 86.5t62.5 53t79 18q61 0 102 -30t65 -89z" />
    <glyph glyph-name="d" unicode="d" horiz-adv-x="464" 
d="M409 0h-118v36q-20 -21 -46 -34t-55 -13q-74 0 -113.5 66.5t-39.5 206.5q0 60 9.5 110.5t29 86.5t50.5 56.5t74 20.5q26 0 50 -11t41 -29v174l118 59v-729zM291 143v238q-12 17 -31 31t-44 14q-16 0 -27 -8t-18 -26.5t-10.5 -49t-3.5 -76.5q0 -87 12 -127t49 -40
q22 0 42 14t31 30z" />
    <glyph glyph-name="e" unicode="e" horiz-adv-x="456" 
d="M421 262q0 -11 -0.5 -22t-1.5 -22h-265q4 -61 26.5 -89t57.5 -28q32 0 48.5 11.5t33.5 34.5l84 -63q-29 -48 -72.5 -71.5t-95.5 -23.5q-49 0 -86.5 20t-63 56t-38.5 86t-13 111q0 66 14.5 117t40 86t61 53t78.5 18q49 0 85.5 -22.5t60 -60.5t35 -87.5t11.5 -103.5z
M303 315q-2 24 -7 45t-13.5 36.5t-22 24.5t-32.5 9q-65 0 -74 -115h149z" />
    <glyph glyph-name="f" unicode="f" horiz-adv-x="315" 
d="M300 609q-21 10 -53 10q-25 0 -35.5 -11t-10.5 -40v-43h84v-112h-84v-413h-118v413h-53v112h53v63q0 36 10 62.5t27.5 43t40.5 24.5t50 8q31 0 51.5 -3.5t37.5 -11.5v-102z" />
    <glyph glyph-name="g" unicode="g" horiz-adv-x="464" 
d="M409 54q0 -59 -10 -101.5t-36 -72t-70 -47t-111 -26.5l-32 88q46 9 74 18.5t43 25t19.5 38.5t4.5 59q-20 -21 -46 -34t-55 -13q-74 0 -113.5 66.5t-39.5 206.5q0 60 9.5 110.5t29 86.5t50.5 56.5t74 20.5q26 0 50 -11t41 -29v29h118v-471zM291 143v238q-12 17 -31 31
t-44 14q-16 0 -27 -8t-18 -26.5t-10.5 -49t-3.5 -76.5q0 -87 12 -127t49 -40q22 0 42 14t31 30z" />
    <glyph glyph-name="h" unicode="h" horiz-adv-x="461" 
d="M411 0h-118v340q0 49 -9 67.5t-41 18.5q-20 0 -39.5 -14t-30.5 -30v-382h-118v670l118 59v-240q20 21 44.5 34t53.5 13q42 0 69 -12.5t43 -37t22 -60.5t6 -82v-344z" />
    <glyph glyph-name="i" unicode="i" horiz-adv-x="238" 
d="M194 651q0 -31 -22 -53t-53 -22t-53 22t-22 53t22 53t53 22t53 -22t22 -53zM178 0h-118v525h118v-525z" />
    <glyph glyph-name="j" unicode="j" horiz-adv-x="238" 
d="M194 651q0 -31 -22 -53t-53 -22t-53 22t-22 53t22 53t53 22t53 -22t22 -53zM178 33q0 -58 -8.5 -97t-30 -64.5t-59.5 -40t-98 -24.5l-33 90q37 8 59.5 17t33.5 23.5t14.5 36t3.5 54.5v497h118v-492z" />
    <glyph glyph-name="k" unicode="k" horiz-adv-x="443" 
d="M421 0h-123l-78 241l-47 -77v-164h-118v670l118 59v-329q0 -22 -0.5 -37t-0.5 -37q9 20 20 40t20 35l73 124h130l-114 -171z" />
    <glyph glyph-name="l" unicode="l" horiz-adv-x="238" 
d="M178 0h-118v670l118 59v-729z" />
    <glyph glyph-name="m" unicode="m" horiz-adv-x="683" 
d="M633 0h-118v340q0 49 -8.5 67.5t-37.5 18.5q-19 0 -37 -14t-29 -30v-382h-118v340q0 49 -8.5 67.5t-37.5 18.5q-19 0 -37 -14t-29 -30v-382h-118v525h118v-36q20 21 44 34t50 13q48 0 74.5 -16t40.5 -42q22 23 49.5 40.5t65.5 17.5q42 0 68.5 -12.5t41.5 -37t20.5 -60.5
t5.5 -82v-344z" />
    <glyph glyph-name="n" unicode="n" horiz-adv-x="461" 
d="M411 0h-118v340q0 49 -9 67.5t-41 18.5q-20 0 -39.5 -14t-30.5 -30v-382h-118v525h118v-36q20 21 44.5 34t53.5 13q42 0 69 -12.5t43 -37t22 -60.5t6 -82v-344z" />
    <glyph glyph-name="o" unicode="o" horiz-adv-x="468" 
d="M433 263q0 -66 -14.5 -117.5t-41 -86t-63 -52.5t-80.5 -18t-81 17.5t-63 52t-40.5 85.5t-14.5 117t14.5 117.5t41 86.5t63.5 53t81 18t80.5 -18t62.5 -52.5t40.5 -85.5t14.5 -117zM313 261q0 73 -19 118t-61 45q-43 0 -60.5 -43.5t-17.5 -117.5t18.5 -118t61.5 -44
q21 0 36 12.5t24 34.5t13.5 51t4.5 62z" />
    <glyph glyph-name="p" unicode="p" horiz-adv-x="464" 
d="M427 263q0 -60 -9.5 -110.5t-29 -86.5t-50.5 -56.5t-74 -20.5q-26 0 -50 11t-41 29v-163l-118 -59v718h118v-36q20 21 46 34t55 13q74 0 113.5 -66.5t39.5 -206.5zM307 259q0 87 -12 127t-49 40q-22 0 -42 -14t-31 -30v-238q12 -17 31 -31t44 -14q16 0 27 8t18 26.5
t10.5 49t3.5 76.5z" />
    <glyph glyph-name="q" unicode="q" horiz-adv-x="464" 
d="M409 -134l-118 -59v229q-20 -21 -46 -34t-55 -13q-74 0 -113.5 66.5t-39.5 206.5q0 60 9.5 110.5t29 86.5t50.5 56.5t74 20.5q26 0 50 -11t41 -29v29h118v-659zM291 143v238q-12 17 -31 31t-44 14q-16 0 -27 -8t-18 -26.5t-10.5 -49t-3.5 -76.5q0 -87 12 -127t49 -40
q22 0 42 14t31 30z" />
    <glyph glyph-name="r" unicode="r" horiz-adv-x="364" 
d="M352 509l-34 -115q-15 12 -31.5 19t-37.5 7q-45 0 -76 -45v-375h-118v525h118v-36q15 17 41 32t55 15q26 0 45 -6.5t38 -20.5z" />
    <glyph glyph-name="s" unicode="s" horiz-adv-x="414" 
d="M373 154q0 -81 -48.5 -123t-123.5 -42q-49 0 -89 14t-77 43l42 101q65 -46 126 -46q28 0 41.5 11.5t13.5 31.5q0 11 -4.5 19.5t-15.5 17.5t-29 18.5t-46 23.5q-57 28 -85.5 64.5t-28.5 97.5q0 35 12 63t33.5 47.5t51.5 30t65 10.5q42 0 77.5 -12t70.5 -36l-41 -96
q-34 18 -57.5 25t-52.5 7q-20 0 -32 -10t-12 -26q0 -9 3.5 -16.5t13.5 -15.5t27 -17.5t44 -22.5q58 -28 89.5 -64t31.5 -98z" />
    <glyph glyph-name="t" unicode="t" horiz-adv-x="365" 
d="M321 126l-14 -114q-20 -11 -42 -17t-48 -6q-64 0 -95.5 37t-31.5 124v263h-65v112h65v145l118 59v-204h106v-112h-106v-260q0 -29 11 -40.5t32 -11.5q36 0 70 25z" />
    <glyph glyph-name="u" unicode="u" horiz-adv-x="461" 
d="M406 0h-118v36q-20 -21 -44.5 -34t-53.5 -13q-42 0 -69 12.5t-43 37t-22 60.5t-6 82v344h118v-340q0 -49 9 -67.5t41 -18.5q20 0 39.5 14t30.5 30v382h118v-525z" />
    <glyph glyph-name="v" unicode="v" horiz-adv-x="436" 
d="M416 525l-134 -525h-128l-134 525h118l49 -227q3 -16 8 -39.5t9.5 -47.5t8.5 -45t6 -31q2 10 6 31.5t9 46t9.5 47.5t7.5 38l49 227h116z" />
    <glyph glyph-name="w" unicode="w" horiz-adv-x="584" 
d="M564 525l-116 -525h-88l-38 182q-4 18 -8.5 40.5t-9 46t-8 44t-5.5 34.5q-2 -14 -5.5 -34.5t-8 -44l-9 -47t-8.5 -41.5l-36 -180h-88l-116 525h108l27 -154q3 -19 7 -42.5t8 -47.5t7 -45.5t5 -34.5q2 13 6 34.5t9 45.5t10 47.5t9 41.5l34 155h84l34 -155q4 -18 9 -41.5
t10 -47.5t9 -45.5t6 -34.5q2 13 5 34.5t7 45.5t8 47.5t7 42.5l27 154h108z" />
    <glyph glyph-name="x" unicode="x" horiz-adv-x="446" 
d="M423 0h-126l-39 84q-11 23 -19.5 45.5t-16.5 44.5q-8 -22 -16.5 -44.5t-19.5 -45.5l-39 -84h-124l140 272l-130 253h126l29 -64q11 -23 19.5 -46t16.5 -44q8 22 16.5 44.5t19.5 45.5l29 64h124l-130 -253z" />
    <glyph glyph-name="y" unicode="y" horiz-adv-x="452" 
d="M432 525l-200 -710h-109l53 194l-156 516h124l49 -196q5 -20 11 -44.5t11 -48.5t9.5 -44.5t6.5 -31.5q2 11 6 32t9 45t10 48.5t9 42.5l44 197h123z" />
    <glyph glyph-name="z" unicode="z" horiz-adv-x="415" 
d="M370 0h-332v103l139 210q20 31 39.5 59t35.5 49q-23 -1 -51 -1.5t-60 -0.5h-88v106h317v-103l-136 -210q-20 -32 -39.5 -59t-36.5 -49q24 1 52 1.5t60 0.5h100v-106z" />
    <glyph glyph-name="braceleft" unicode="{" horiz-adv-x="375" 
d="M335 -110q-62 0 -105.5 13.5t-70.5 40t-39.5 66t-12.5 91.5v75q0 36 -15.5 52.5t-44.5 16.5h-22v104h22q29 0 44.5 16.5t15.5 52.5v76q0 52 12.5 91.5t39.5 66t70.5 40t105.5 13.5v-81q-34 -4 -53.5 -13t-30 -25t-13.5 -38.5t-3 -53.5v-41q0 -41 -5.5 -67.5t-17.5 -44
t-30 -27.5t-42 -17q24 -7 42 -17t30 -27.5t17.5 -44.5t5.5 -67v-40q0 -31 3 -53.5t13.5 -38.5t30 -25t53.5 -13v-81z" />
    <glyph glyph-name="bar" unicode="|" horiz-adv-x="258" 
d="M184 -185h-110v985h110v-985z" />
    <glyph glyph-name="braceright" unicode="}" horiz-adv-x="375" 
d="M350 246h-22q-29 0 -44.5 -16.5t-15.5 -52.5v-76q0 -52 -12.5 -91.5t-39.5 -66t-70.5 -40t-105.5 -13.5v81q34 4 53.5 13t30 25t13.5 38.5t3 53.5v41q0 40 5.5 67t17.5 44.5t30 27.5t42 17q-24 7 -42 17t-30 27.5t-17.5 44t-5.5 67.5v40q0 31 -3 53.5t-13.5 38.5t-30 25
t-53.5 13v81q62 0 105.5 -13.5t70.5 -40t39.5 -66t12.5 -91.5v-75q0 -36 15.5 -52.5t44.5 -16.5h22v-104z" />
    <glyph glyph-name="asciitilde" unicode="~" horiz-adv-x="562" 
d="M520 424q-27 -69 -62 -105t-91 -36q-31 0 -51 8.5t-45 25.5q-32 22 -50.5 31t-32.5 9q-24 0 -38.5 -16.5t-35.5 -59.5l-72 37q27 69 62 105t91 36q31 0 51 -8.5t45 -25.5q58 -40 82 -40q12 0 21.5 3.5t17.5 12.5t16.5 23.5t19.5 36.5z" />
    <glyph glyph-name="Adieresis" unicode="&#xc4;" horiz-adv-x="536" 
d="M508 0h-129l-33 146h-157l-33 -146h-128l179 700h122zM319 263l-19 83q-5 20 -10 44.5t-9.5 48t-8 44t-5.5 33.5q-2 -14 -5.5 -33.5t-7.5 -42.5t-9 -47t-10 -45l-19 -85h103zM432 816q0 -29 -21 -50t-50 -21q-15 0 -28 5.5t-22.5 15.5t-15.5 23t-6 27q0 29 21.5 50.5
t50.5 21.5q14 0 27 -6t22.5 -15.5t15.5 -22.5t6 -28zM241 816q0 -29 -21 -50t-50 -21q-15 0 -28 5.5t-22.5 15.5t-15.5 23t-6 27q0 29 21.5 50.5t50.5 21.5q14 0 27 -6t22.5 -15.5t15.5 -22.5t6 -28z" />
    <glyph glyph-name="Aring" unicode="&#xc5;" horiz-adv-x="536" 
d="M508 0h-129l-33 146h-157l-33 -146h-128l165 645q-20 16 -32 40t-12 53q0 25 9 47t25 38t37.5 25t47.5 9q25 0 47 -9t38 -25t25 -38t9 -47q0 -29 -12 -53t-32 -40zM320 738q0 23 -15 38t-37 15t-37 -15t-15 -38t15 -38t37 -15t37 15t15 38zM319 263l-19 83
q-5 20 -10 44.5t-9.5 48t-8 44t-5.5 33.5q-2 -14 -5.5 -33.5t-7.5 -42.5t-9 -47t-10 -45l-19 -85h103z" />
    <glyph glyph-name="Ccedilla" unicode="&#xc7;" horiz-adv-x="500" 
d="M468 168q-24 -84 -69 -129.5t-120 -49.5l-7 -31q13 6 36 6q29 0 47.5 -17.5t18.5 -52.5q0 -45 -29.5 -66t-74.5 -21q-39 0 -65 9.5t-51 26.5l21 38q23 -12 38.5 -19t35.5 -7q26 0 37.5 9.5t11.5 26.5q0 28 -26 28q-17 0 -30 -9l-36 14l17 70q-47 10 -81.5 41.5t-57 78.5
t-33.5 107t-11 128q0 76 14 142t42.5 115t71.5 77t101 28q45 0 77.5 -13.5t56 -37t39 -56t25.5 -70.5l-117 -38q-14 48 -31 69t-52 21q-51 0 -75 -61.5t-24 -173.5t25 -174.5t76 -62.5q16 0 28.5 5t23 16.5t20 30.5t19.5 48z" />
    <glyph glyph-name="Eacute" unicode="&#xc9;" horiz-adv-x="476" 
d="M433 0h-368v700h359v-120h-234v-148h157v-118h-157v-194h243v-120zM418 905l-145 -160h-97l87 160h155z" />
    <glyph glyph-name="Ntilde" unicode="&#xd1;" horiz-adv-x="544" 
d="M479 0h-120l-129 312q-14 33 -28.5 72t-24.5 70q0 -16 0.5 -36.5t1 -42.5t0.5 -43v-37v-295h-114v700h126l123 -307q6 -16 13.5 -35t15 -39t14.5 -38.5t12 -33.5q0 16 -1 37.5t-1.5 44t-1 43.5t-0.5 38v290h114v-700zM442 872q0 -60 -27 -95t-71 -35q-27 0 -44 6.5
t-42 21.5q-20 12 -28 15t-17 3q-12 0 -18 -9.5t-10 -33.5h-77q0 60 27 95t71 35q13 0 23.5 -1.5t20 -5t19.5 -9t23 -12.5q20 -12 28 -15t17 -3q12 0 18 9.5t10 33.5h77z" />
    <glyph glyph-name="Odieresis" unicode="&#xd6;" horiz-adv-x="545" 
d="M505 351q0 -76 -13.5 -142t-42 -115t-72.5 -77t-105 -28t-105 28t-72 76.5t-41.5 114.5t-13.5 141q0 76 13.5 142t42 115t73 77t105.5 28t104.5 -28t71.5 -76.5t41.5 -114.5t13.5 -141zM377 349q0 112 -24.5 174.5t-80.5 62.5q-57 0 -80.5 -61.5t-23.5 -173.5
t24.5 -174.5t81.5 -62.5q56 0 79.5 61.5t23.5 173.5zM441 816q0 -29 -21 -50t-50 -21q-15 0 -28 5.5t-22.5 15.5t-15.5 23t-6 27q0 29 21.5 50.5t50.5 21.5q14 0 27 -6t22.5 -15.5t15.5 -22.5t6 -28zM250 816q0 -29 -21 -50t-50 -21q-15 0 -28 5.5t-22.5 15.5t-15.5 23
t-6 27q0 29 21.5 50.5t50.5 21.5q14 0 27 -6t22.5 -15.5t15.5 -22.5t6 -28z" />
    <glyph glyph-name="Udieresis" unicode="&#xdc;" horiz-adv-x="540" 
d="M478 280q0 -68 -11 -122t-35.5 -91.5t-64 -57.5t-97.5 -20q-56 0 -95.5 20.5t-64.5 58.5t-36.5 91.5t-11.5 118.5v422h125v-422q0 -91 20.5 -128t63.5 -37q44 0 63 37t19 128v422h125v-420zM436 816q0 -29 -21 -50t-50 -21q-15 0 -28 5.5t-22.5 15.5t-15.5 23t-6 27
q0 29 21.5 50.5t50.5 21.5q14 0 27 -6t22.5 -15.5t15.5 -22.5t6 -28zM245 816q0 -29 -21 -50t-50 -21q-15 0 -28 5.5t-22.5 15.5t-15.5 23t-6 27q0 29 21.5 50.5t50.5 21.5q14 0 27 -6t22.5 -15.5t15.5 -22.5t6 -28z" />
    <glyph glyph-name="aacute" unicode="&#xe1;" horiz-adv-x="444" 
d="M394 0h-118v36q-18 -23 -43 -35t-51 -12q-69 0 -112 49t-43 134q0 40 12 72.5t33.5 55t51 35t64.5 12.5t53 -5t35 -16v40q0 28 -14 46.5t-49 18.5q-33 0 -57 -7.5t-49 -24.5l-48 86q36 25 75 38t87 13q92 0 132.5 -44t40.5 -131v-361zM276 138v84q-14 12 -29.5 18.5
t-42.5 6.5q-25 0 -41 -20t-16 -53q0 -38 15.5 -59t44.5 -21q21 0 39.5 12.5t29.5 31.5zM400 755l-145 -160h-97l87 160h155z" />
    <glyph glyph-name="agrave" unicode="&#xe0;" horiz-adv-x="444" 
d="M394 0h-118v36q-18 -23 -43 -35t-51 -12q-69 0 -112 49t-43 134q0 40 12 72.5t33.5 55t51 35t64.5 12.5t53 -5t35 -16v40q0 28 -14 46.5t-49 18.5q-33 0 -57 -7.5t-49 -24.5l-48 86q36 25 75 38t87 13q92 0 132.5 -44t40.5 -131v-361zM276 138v84q-14 12 -29.5 18.5
t-42.5 6.5q-25 0 -41 -20t-16 -53q0 -38 15.5 -59t44.5 -21q21 0 39.5 12.5t29.5 31.5zM279 595h-97l-145 160h155z" />
    <glyph glyph-name="acircumflex" unicode="&#xe2;" horiz-adv-x="444" 
d="M394 0h-118v36q-18 -23 -43 -35t-51 -12q-69 0 -112 49t-43 134q0 40 12 72.5t33.5 55t51 35t64.5 12.5t53 -5t35 -16v40q0 28 -14 46.5t-49 18.5q-33 0 -57 -7.5t-49 -24.5l-48 86q36 25 75 38t87 13q92 0 132.5 -44t40.5 -131v-361zM276 138v84q-14 12 -29.5 18.5
t-42.5 6.5q-25 0 -41 -20t-16 -53q0 -38 15.5 -59t44.5 -21q21 0 39.5 12.5t29.5 31.5zM382 591h-88l-77 73l-77 -73h-86l109 160h110z" />
    <glyph glyph-name="adieresis" unicode="&#xe4;" horiz-adv-x="444" 
d="M394 0h-118v36q-18 -23 -43 -35t-51 -12q-69 0 -112 49t-43 134q0 40 12 72.5t33.5 55t51 35t64.5 12.5t53 -5t35 -16v40q0 28 -14 46.5t-49 18.5q-33 0 -57 -7.5t-49 -24.5l-48 86q36 25 75 38t87 13q92 0 132.5 -44t40.5 -131v-361zM276 138v84q-14 12 -29.5 18.5
t-42.5 6.5q-25 0 -41 -20t-16 -53q0 -38 15.5 -59t44.5 -21q21 0 39.5 12.5t29.5 31.5zM385 662q0 -29 -21 -50t-50 -21q-15 0 -28 5.5t-22.5 15.5t-15.5 23t-6 27q0 29 21.5 50.5t50.5 21.5q14 0 27 -6t22.5 -15.5t15.5 -22.5t6 -28zM194 662q0 -29 -21 -50t-50 -21
q-15 0 -28 5.5t-22.5 15.5t-15.5 23t-6 27q0 29 21.5 50.5t50.5 21.5q14 0 27 -6t22.5 -15.5t15.5 -22.5t6 -28z" />
    <glyph glyph-name="atilde" unicode="&#xe3;" horiz-adv-x="444" 
d="M394 0h-118v36q-18 -23 -43 -35t-51 -12q-69 0 -112 49t-43 134q0 40 12 72.5t33.5 55t51 35t64.5 12.5t53 -5t35 -16v40q0 28 -14 46.5t-49 18.5q-33 0 -57 -7.5t-49 -24.5l-48 86q36 25 75 38t87 13q92 0 132.5 -44t40.5 -131v-361zM276 138v84q-14 12 -29.5 18.5
t-42.5 6.5q-25 0 -41 -20t-16 -53q0 -38 15.5 -59t44.5 -21q21 0 39.5 12.5t29.5 31.5zM385 722q0 -60 -27 -95t-71 -35q-27 0 -44 6.5t-42 21.5q-20 12 -28 15t-17 3q-12 0 -18 -9.5t-10 -33.5h-77q0 60 27 95t71 35q13 0 23.5 -1.5t20 -5t19.5 -9t23 -12.5q20 -12 28 -15
t17 -3q12 0 18 9.5t10 33.5h77z" />
    <glyph glyph-name="aring" unicode="&#xe5;" horiz-adv-x="444" 
d="M394 0h-118v36q-18 -23 -43 -35t-51 -12q-69 0 -112 49t-43 134q0 40 12 72.5t33.5 55t51 35t64.5 12.5t53 -5t35 -16v40q0 28 -14 46.5t-49 18.5q-33 0 -57 -7.5t-49 -24.5l-48 86q36 25 75 38t87 13q92 0 132.5 -44t40.5 -131v-361zM276 138v84q-14 12 -29.5 18.5
t-42.5 6.5q-25 0 -41 -20t-16 -53q0 -38 15.5 -59t44.5 -21q21 0 39.5 12.5t29.5 31.5zM337 713q0 -26 -9 -47.5t-25 -37t-38 -24.5t-47 -9q-26 0 -47.5 9t-37.5 24.5t-25 37t-9 47.5q0 25 9 47t25 38t37.5 25t47.5 9q25 0 47 -9t38 -25t25 -38t9 -47zM270 713q0 23 -15 38
t-37 15t-37 -15t-15 -38t15 -38t37 -15t37 15t15 38z" />
    <glyph glyph-name="ccedilla" unicode="&#xe7;" horiz-adv-x="430" 
d="M399 417l-95 -64q-14 32 -31 51.5t-43 19.5q-40 0 -57.5 -43.5t-17.5 -117.5t18.5 -118t60.5 -44q26 0 44.5 22t31.5 55l87 -63q-22 -52 -58.5 -86.5t-91.5 -38.5l-7 -32q13 6 36 6q29 0 47.5 -17.5t18.5 -52.5q0 -45 -29.5 -66t-74.5 -21q-39 0 -65 9.5t-51 26.5l21 38
q23 -12 38.5 -19t35.5 -7q26 0 37.5 9.5t11.5 26.5q0 28 -26 28q-17 0 -30 -9l-36 14l17 70q-70 15 -113 82.5t-43 184.5q0 66 14.5 117.5t41 86.5t62.5 53t79 18q61 0 102 -30t65 -89z" />
    <glyph glyph-name="eacute" unicode="&#xe9;" horiz-adv-x="456" 
d="M421 262q0 -11 -0.5 -22t-1.5 -22h-265q4 -61 26.5 -89t57.5 -28q32 0 48.5 11.5t33.5 34.5l84 -63q-29 -48 -72.5 -71.5t-95.5 -23.5q-49 0 -86.5 20t-63 56t-38.5 86t-13 111q0 66 14.5 117t40 86t61 53t78.5 18q49 0 85.5 -22.5t60 -60.5t35 -87.5t11.5 -103.5z
M303 315q-2 24 -7 45t-13.5 36.5t-22 24.5t-32.5 9q-65 0 -74 -115h149zM407 755l-145 -160h-97l87 160h155z" />
    <glyph glyph-name="egrave" unicode="&#xe8;" horiz-adv-x="456" 
d="M421 262q0 -11 -0.5 -22t-1.5 -22h-265q4 -61 26.5 -89t57.5 -28q32 0 48.5 11.5t33.5 34.5l84 -63q-29 -48 -72.5 -71.5t-95.5 -23.5q-49 0 -86.5 20t-63 56t-38.5 86t-13 111q0 66 14.5 117t40 86t61 53t78.5 18q49 0 85.5 -22.5t60 -60.5t35 -87.5t11.5 -103.5z
M303 315q-2 24 -7 45t-13.5 36.5t-22 24.5t-32.5 9q-65 0 -74 -115h149zM286 595h-97l-145 160h155z" />
    <glyph glyph-name="ecircumflex" unicode="&#xea;" horiz-adv-x="456" 
d="M421 262q0 -11 -0.5 -22t-1.5 -22h-265q4 -61 26.5 -89t57.5 -28q32 0 48.5 11.5t33.5 34.5l84 -63q-29 -48 -72.5 -71.5t-95.5 -23.5q-49 0 -86.5 20t-63 56t-38.5 86t-13 111q0 66 14.5 117t40 86t61 53t78.5 18q49 0 85.5 -22.5t60 -60.5t35 -87.5t11.5 -103.5z
M303 315q-2 24 -7 45t-13.5 36.5t-22 24.5t-32.5 9q-65 0 -74 -115h149zM389 586h-88l-77 73l-77 -73h-86l109 160h110z" />
    <glyph glyph-name="edieresis" unicode="&#xeb;" horiz-adv-x="456" 
d="M421 262q0 -11 -0.5 -22t-1.5 -22h-265q4 -61 26.5 -89t57.5 -28q32 0 48.5 11.5t33.5 34.5l84 -63q-29 -48 -72.5 -71.5t-95.5 -23.5q-49 0 -86.5 20t-63 56t-38.5 86t-13 111q0 66 14.5 117t40 86t61 53t78.5 18q49 0 85.5 -22.5t60 -60.5t35 -87.5t11.5 -103.5z
M303 315q-2 24 -7 45t-13.5 36.5t-22 24.5t-32.5 9q-65 0 -74 -115h149zM392 662q0 -29 -21 -50t-50 -21q-15 0 -28 5.5t-22.5 15.5t-15.5 23t-6 27q0 29 21.5 50.5t50.5 21.5q14 0 27 -6t22.5 -15.5t15.5 -22.5t6 -28zM201 662q0 -29 -21 -50t-50 -21q-15 0 -28 5.5
t-22.5 15.5t-15.5 23t-6 27q0 29 21.5 50.5t50.5 21.5q14 0 27 -6t22.5 -15.5t15.5 -22.5t6 -28z" />
    <glyph glyph-name="iacute" unicode="&#xed;" horiz-adv-x="238" 
d="M178 0h-118v525h118v-525zM307 755l-145 -160h-97l87 160h155z" />
    <glyph glyph-name="igrave" unicode="&#xec;" horiz-adv-x="238" 
d="M178 0h-118v525h118v-525zM175 595h-97l-145 160h155z" />
    <glyph glyph-name="icircumflex" unicode="&#xee;" horiz-adv-x="238" 
d="M178 0h-118v525h118v-525zM284 581h-88l-77 73l-77 -73h-86l109 160h110z" />
    <glyph glyph-name="idieresis" unicode="&#xef;" horiz-adv-x="238" 
d="M178 0h-118v525h118v-525zM285 666q0 -29 -21 -50t-50 -21q-15 0 -28 5.5t-22.5 15.5t-15.5 23t-6 27q0 29 21.5 50.5t50.5 21.5q14 0 27 -6t22.5 -15.5t15.5 -22.5t6 -28zM94 666q0 -29 -21 -50t-50 -21q-15 0 -28 5.5t-22.5 15.5t-15.5 23t-6 27q0 29 21.5 50.5
t50.5 21.5q14 0 27 -6t22.5 -15.5t15.5 -22.5t6 -28z" />
    <glyph glyph-name="ntilde" unicode="&#xf1;" horiz-adv-x="461" 
d="M411 0h-118v340q0 49 -9 67.5t-41 18.5q-20 0 -39.5 -14t-30.5 -30v-382h-118v525h118v-36q20 21 44.5 34t53.5 13q42 0 69 -12.5t43 -37t22 -60.5t6 -82v-344zM399 722q0 -60 -27 -95t-71 -35q-27 0 -44 6.5t-42 21.5q-20 12 -28 15t-17 3q-12 0 -18 -9.5t-10 -33.5h-77
q0 60 27 95t71 35q13 0 23.5 -1.5t20 -5t19.5 -9t23 -12.5q20 -12 28 -15t17 -3q12 0 18 9.5t10 33.5h77z" />
    <glyph glyph-name="oacute" unicode="&#xf3;" horiz-adv-x="468" 
d="M433 263q0 -66 -14.5 -117.5t-41 -86t-63 -52.5t-80.5 -18t-81 17.5t-63 52t-40.5 85.5t-14.5 117t14.5 117.5t41 86.5t63.5 53t81 18t80.5 -18t62.5 -52.5t40.5 -85.5t14.5 -117zM313 261q0 73 -19 118t-61 45q-43 0 -60.5 -43.5t-17.5 -117.5t18.5 -118t61.5 -44
q21 0 36 12.5t24 34.5t13.5 51t4.5 62zM408 755l-145 -160h-97l87 160h155z" />
    <glyph glyph-name="ograve" unicode="&#xf2;" horiz-adv-x="468" 
d="M433 263q0 -66 -14.5 -117.5t-41 -86t-63 -52.5t-80.5 -18t-81 17.5t-63 52t-40.5 85.5t-14.5 117t14.5 117.5t41 86.5t63.5 53t81 18t80.5 -18t62.5 -52.5t40.5 -85.5t14.5 -117zM313 261q0 73 -19 118t-61 45q-43 0 -60.5 -43.5t-17.5 -117.5t18.5 -118t61.5 -44
q21 0 36 12.5t24 34.5t13.5 51t4.5 62zM287 595h-97l-145 160h155z" />
    <glyph glyph-name="ocircumflex" unicode="&#xf4;" horiz-adv-x="468" 
d="M433 263q0 -66 -14.5 -117.5t-41 -86t-63 -52.5t-80.5 -18t-81 17.5t-63 52t-40.5 85.5t-14.5 117t14.5 117.5t41 86.5t63.5 53t81 18t80.5 -18t62.5 -52.5t40.5 -85.5t14.5 -117zM313 261q0 73 -19 118t-61 45q-43 0 -60.5 -43.5t-17.5 -117.5t18.5 -118t61.5 -44
q21 0 36 12.5t24 34.5t13.5 51t4.5 62zM395 586h-88l-77 73l-77 -73h-86l109 160h110z" />
    <glyph glyph-name="odieresis" unicode="&#xf6;" horiz-adv-x="468" 
d="M433 263q0 -66 -14.5 -117.5t-41 -86t-63 -52.5t-80.5 -18t-81 17.5t-63 52t-40.5 85.5t-14.5 117t14.5 117.5t41 86.5t63.5 53t81 18t80.5 -18t62.5 -52.5t40.5 -85.5t14.5 -117zM313 261q0 73 -19 118t-61 45q-43 0 -60.5 -43.5t-17.5 -117.5t18.5 -118t61.5 -44
q21 0 36 12.5t24 34.5t13.5 51t4.5 62zM398 657q0 -29 -21 -50t-50 -21q-15 0 -28 5.5t-22.5 15.5t-15.5 23t-6 27q0 29 21.5 50.5t50.5 21.5q14 0 27 -6t22.5 -15.5t15.5 -22.5t6 -28zM207 657q0 -29 -21 -50t-50 -21q-15 0 -28 5.5t-22.5 15.5t-15.5 23t-6 27
q0 29 21.5 50.5t50.5 21.5q14 0 27 -6t22.5 -15.5t15.5 -22.5t6 -28z" />
    <glyph glyph-name="otilde" unicode="&#xf5;" horiz-adv-x="468" 
d="M433 263q0 -66 -14.5 -117.5t-41 -86t-63 -52.5t-80.5 -18t-81 17.5t-63 52t-40.5 85.5t-14.5 117t14.5 117.5t41 86.5t63.5 53t81 18t80.5 -18t62.5 -52.5t40.5 -85.5t14.5 -117zM313 261q0 73 -19 118t-61 45q-43 0 -60.5 -43.5t-17.5 -117.5t18.5 -118t61.5 -44
q21 0 36 12.5t24 34.5t13.5 51t4.5 62zM396 722q0 -60 -27 -95t-71 -35q-27 0 -44 6.5t-42 21.5q-20 12 -28 15t-17 3q-12 0 -18 -9.5t-10 -33.5h-77q0 60 27 95t71 35q13 0 23.5 -1.5t20 -5t19.5 -9t23 -12.5q20 -12 28 -15t17 -3q12 0 18 9.5t10 33.5h77z" />
    <glyph glyph-name="uacute" unicode="&#xfa;" horiz-adv-x="461" 
d="M406 0h-118v36q-20 -21 -44.5 -34t-53.5 -13q-42 0 -69 12.5t-43 37t-22 60.5t-6 82v344h118v-340q0 -49 9 -67.5t41 -18.5q20 0 39.5 14t30.5 30v382h118v-525zM403 755l-145 -160h-97l87 160h155z" />
    <glyph glyph-name="ugrave" unicode="&#xf9;" horiz-adv-x="461" 
d="M406 0h-118v36q-20 -21 -44.5 -34t-53.5 -13q-42 0 -69 12.5t-43 37t-22 60.5t-6 82v344h118v-340q0 -49 9 -67.5t41 -18.5q20 0 39.5 14t30.5 30v382h118v-525zM282 595h-97l-145 160h155z" />
    <glyph glyph-name="ucircumflex" unicode="&#xfb;" horiz-adv-x="461" 
d="M406 0h-118v36q-20 -21 -44.5 -34t-53.5 -13q-42 0 -69 12.5t-43 37t-22 60.5t-6 82v344h118v-340q0 -49 9 -67.5t41 -18.5q20 0 39.5 14t30.5 30v382h118v-525zM390 595h-88l-77 73l-77 -73h-86l109 160h110z" />
    <glyph glyph-name="udieresis" unicode="&#xfc;" horiz-adv-x="461" 
d="M406 0h-118v36q-20 -21 -44.5 -34t-53.5 -13q-42 0 -69 12.5t-43 37t-22 60.5t-6 82v344h118v-340q0 -49 9 -67.5t41 -18.5q20 0 39.5 14t30.5 30v382h118v-525zM392 666q0 -29 -21 -50t-50 -21q-15 0 -28 5.5t-22.5 15.5t-15.5 23t-6 27q0 29 21.5 50.5t50.5 21.5
q14 0 27 -6t22.5 -15.5t15.5 -22.5t6 -28zM201 666q0 -29 -21 -50t-50 -21q-15 0 -28 5.5t-22.5 15.5t-15.5 23t-6 27q0 29 21.5 50.5t50.5 21.5q14 0 27 -6t22.5 -15.5t15.5 -22.5t6 -28z" />
    <glyph glyph-name="dagger" unicode="&#x2020;" horiz-adv-x="464" 
d="M432 368h-145v-468h-120v468h-135v121h135v211h120v-211h145v-121z" />
    <glyph glyph-name="degree" unicode="&#xb0;" horiz-adv-x="423" 
d="M393 531q0 -39 -14 -72.5t-38.5 -58t-57.5 -38.5t-72 -14q-38 0 -71 14t-57.5 38.5t-38.5 58t-14 72.5q0 37 14 70t38.5 57.5t57.5 38.5t71 14q39 0 72 -14t57.5 -38.5t38.5 -57.5t14 -70zM300 531q0 18 -7 34t-19 28t-28.5 19t-34.5 7t-34 -7t-28 -19t-19 -28t-7 -34
q0 -19 7 -35.5t19 -29t28 -19.5t34 -7q37 0 63 26.5t26 64.5z" />
    <glyph glyph-name="cent" unicode="&#xa2;" horiz-adv-x="430" 
d="M399 510l-95 -61q-14 32 -31 51.5t-43 19.5q-40 0 -57.5 -45t-17.5 -119t19 -119.5t60 -45.5q26 0 44.5 22t31.5 55l87 -60q-18 -43 -46 -74.5t-69 -44.5v-100h-119v106q-59 24 -93.5 89t-34.5 170t35 171t93 90v96h119v-88q79 -21 117 -113z" />
    <glyph glyph-name="sterling" unicode="&#xa3;" horiz-adv-x="489" 
d="M466 636l-65 -95q-29 23 -58.5 36t-63.5 13q-35 0 -52.5 -17t-17.5 -46q0 -20 6.5 -45t17.5 -48q13 -29 20 -56h113v-103h-106q-5 -47 -20.5 -87t-40.5 -79h253v-109h-392v102q39 44 58.5 84t23.5 89h-82v103h70q-8 21 -18 42q-11 23 -19 53t-8 61q0 82 50 129.5
t136 47.5q59 0 105.5 -20t89.5 -55z" />
    <glyph glyph-name="section" unicode="&#xa7;" horiz-adv-x="527" 
d="M483 261q0 -56 -25.5 -92.5t-63.5 -61.5q24 -22 35.5 -47.5t11.5 -60.5q0 -36 -13 -66t-37.5 -51.5t-59 -33.5t-77.5 -12q-49 0 -92 15.5t-84 41.5l54 97q28 -18 59 -29.5t61 -11.5q63 0 63 45q0 13 -4.5 23t-16.5 20.5t-33 22t-54 27.5q-43 21 -73.5 41t-50.5 42.5
t-29.5 50.5t-9.5 65q0 56 25 92.5t63 61.5q-23 22 -34.5 47.5t-11.5 60.5q0 36 13 66t37.5 51.5t59 33.5t77.5 12q49 0 92 -15.5t84 -41.5l-54 -97q-28 18 -59 29.5t-61 11.5q-63 0 -63 -45q0 -13 4.5 -23t16.5 -20.5t33 -22t54 -27.5q43 -21 73.5 -41t50.5 -42.5
t29.5 -50.5t9.5 -65zM358 252q0 19 -5 34t-17.5 28t-33.5 25.5t-53 28.5q-6 3 -12.5 6t-11.5 6q-28 -16 -42 -36t-14 -49q0 -20 5 -34.5t17.5 -27.5t33.5 -25.5t53 -28.5q6 -3 12.5 -6t11.5 -6q28 16 42 36t14 49z" />
    <glyph glyph-name="bullet" unicode="&#x2022;" horiz-adv-x="404" 
d="M364 366q0 -34 -12.5 -63.5t-34.5 -51.5t-51.5 -34.5t-63.5 -12.5t-63.5 12.5t-51.5 34.5t-34.5 51.5t-12.5 63.5t12.5 64t34.5 52t51.5 35t63.5 13t63.5 -13t51.5 -35t34.5 -52t12.5 -64z" />
    <glyph glyph-name="paragraph" unicode="&#xb6;" horiz-adv-x="620" 
d="M547 -185h-105v789h-64v-789h-105v436h-8q-50 0 -91 14.5t-70.5 43t-45.5 70.5t-16 97q0 57 19 99t50.5 69.5t72.5 41.5t86 14h277v-885z" />
    <glyph glyph-name="germandbls" unicode="&#xdf;" horiz-adv-x="501" 
d="M464 223q0 -109 -52.5 -166t-165.5 -57h-15v108h12q48 0 74.5 26t26.5 89q0 64 -30 91.5t-75 27.5h-8v107h9q77 0 77 89q0 40 -19.5 59t-52.5 19q-72 0 -72 -80v-670l-118 -59v724q0 102 51.5 148.5t140.5 46.5q86 0 138 -46t52 -134q0 -57 -23.5 -92t-67.5 -52
q24 -9 45 -23t37.5 -35.5t26 -51t9.5 -69.5z" />
    <glyph glyph-name="registered" unicode="&#xae;" horiz-adv-x="414" 
d="M282 553q0 -25 -9 -40t-23 -23l35 -102h-53l-30 92h-17v-92h-49v234h79q29 0 48 -16.5t19 -52.5zM234 552q0 15 -5.5 21t-17.5 6h-26v-57h26q23 0 23 30zM374 502q0 -46 -12 -84.5t-34 -66.5t-53 -43.5t-69 -15.5t-68.5 15.5t-52 43.5t-33.5 66.5t-12 84.5t12 84t33.5 66
t52 43.5t68.5 15.5t69 -15.5t53 -43.5t34 -66t12 -84zM329 502q0 36 -8 66.5t-23.5 53t-38.5 35t-53 12.5q-29 0 -51.5 -12.5t-38 -35t-23.5 -53t-8 -66.5t8 -67t23.5 -53.5t38 -35t51.5 -12.5q30 0 53 12.5t38.5 35t23.5 53.5t8 67z" />
    <glyph glyph-name="copyright" unicode="&#xa9;" horiz-adv-x="414" 
d="M207 382q-38 0 -59 30.5t-21 90.5q0 57 21.5 88.5t59.5 31.5q31 0 47 -18t24 -47l-46 -18q-5 19 -10.5 26.5t-14.5 7.5q-14 0 -20.5 -15.5t-6.5 -55.5q0 -41 6.5 -55.5t20.5 -14.5q8 0 14.5 7t13.5 28l43 -20q-11 -31 -26.5 -48.5t-45.5 -17.5zM206 292q-38 0 -68.5 15.5
t-52 43.5t-33.5 66.5t-12 84.5t12 84t33.5 66t52 43.5t68.5 15.5t69 -15.5t53 -43.5t34 -66t12 -84t-12 -84.5t-34 -66.5t-53 -43.5t-69 -15.5zM206 330q61 0 93 48.5t32 123.5q0 37 -8 68.5t-24 54t-39.5 35.5t-53.5 13t-53 -13t-39 -35.5t-24 -54t-8 -68.5
q0 -75 32 -123.5t92 -48.5z" />
    <glyph glyph-name="trademark" unicode="&#x2122;" horiz-adv-x="620" 
d="M243 633h-81v-325h-70v325h-81v67h232v-67zM572 308h-63v125v55.5t1 46.5q-6 -20 -14.5 -45.5t-18.5 -54.5l-47 -137l-47 137q-10 29 -18.5 55t-14.5 46q1 -20 1 -46.5v-56.5v-125h-64v392h71l48 -147q16 -48 25 -84q5 18 11 39t14 45l47 147h69v-392z" />
    <glyph glyph-name="acute" unicode="&#xb4;" horiz-adv-x="400" 
d="M335 755l-145 -160h-97l87 160h155z" />
    <glyph glyph-name="dieresis" unicode="&#xa8;" horiz-adv-x="400" 
d="M367 666q0 -29 -21 -50t-50 -21q-15 0 -28 5.5t-22.5 15.5t-15.5 23t-6 27q0 29 21.5 50.5t50.5 21.5q14 0 27 -6t22.5 -15.5t15.5 -22.5t6 -28zM176 666q0 -29 -21 -50t-50 -21q-15 0 -28 5.5t-22.5 15.5t-15.5 23t-6 27q0 29 21.5 50.5t50.5 21.5q14 0 27 -6
t22.5 -15.5t15.5 -22.5t6 -28z" />
    <glyph glyph-name="notequal" unicode="&#x2260;" 
d="M750 350l-176 -133q-8 -6 -15 -5.5t-11 3.5q-15 10 -9 31l14 50h-116v-114l51 14q21 6 30 -9q3 -4 3 -11t-6 -15l-130 -176l-133 176q-6 8 -5.5 15t3.5 11q10 15 31 9l50 -14v114h-114l14 -50q6 -21 -9 -31q-4 -3 -11 -3.5t-15 5.5l-176 133l176 130q8 6 15 6t11 -3
q15 -9 9 -30l-14 -51h114v116l-50 -14q-21 -6 -31 9q-3 4 -3.5 11t5.5 15l133 176l130 -176q6 -8 6 -15t-3 -11q-9 -15 -30 -9l-51 14v-116h116l-14 51q-6 21 9 30q4 3 11 3t15 -6z" />
    <glyph glyph-name="AE" unicode="&#xc6;" horiz-adv-x="733" 
d="M690 0h-353v141h-147l-47 -141h-126l249 700h415v-116h-225v-154h148v-114h-148v-200h234v-116zM338 589q-8 -28 -19.5 -63t-21.5 -64l-69 -207h109v216v57.5t1 60.5z" />
    <glyph glyph-name="Oslash" unicode="&#xd8;" horiz-adv-x="545" 
d="M505 351q0 -76 -13.5 -142t-42 -115t-72.5 -77t-105 -28q-43 0 -79 15l-21 -54h-109l46 122q-36 49 -52.5 120.5t-16.5 156.5q0 76 13.5 142t42 115t73 77t105.5 28q43 0 79 -15l22 54h109l-47 -123q35 -49 51.5 -120t16.5 -156zM309 584q-17 9 -37 9q-58 0 -83.5 -63.5
t-25.5 -178.5q0 -37 2.5 -69t8.5 -58zM382 349q0 36 -2.5 67.5t-7.5 57.5l-135 -359q18 -8 37 -8q57 0 82.5 63.5t25.5 178.5z" />
    <glyph glyph-name="infinity" unicode="&#x221e;" 
d="M750 350l-176 -133q-8 -6 -15 -5.5t-11 3.5q-15 10 -9 31l14 50h-116v-114l51 14q21 6 30 -9q3 -4 3 -11t-6 -15l-130 -176l-133 176q-6 8 -5.5 15t3.5 11q10 15 31 9l50 -14v114h-114l14 -50q6 -21 -9 -31q-4 -3 -11 -3.5t-15 5.5l-176 133l176 130q8 6 15 6t11 -3
q15 -9 9 -30l-14 -51h114v116l-50 -14q-21 -6 -31 9q-3 4 -3.5 11t5.5 15l133 176l130 -176q6 -8 6 -15t-3 -11q-9 -15 -30 -9l-51 14v-116h116l-14 51q-6 21 9 30q4 3 11 3t15 -6z" />
    <glyph glyph-name="plusminus" unicode="&#xb1;" 
d="M750 350l-176 -133q-8 -6 -15 -5.5t-11 3.5q-15 10 -9 31l14 50h-116v-114l51 14q21 6 30 -9q3 -4 3 -11t-6 -15l-130 -176l-133 176q-6 8 -5.5 15t3.5 11q10 15 31 9l50 -14v114h-114l14 -50q6 -21 -9 -31q-4 -3 -11 -3.5t-15 5.5l-176 133l176 130q8 6 15 6t11 -3
q15 -9 9 -30l-14 -51h114v116l-50 -14q-21 -6 -31 9q-3 4 -3.5 11t5.5 15l133 176l130 -176q6 -8 6 -15t-3 -11q-9 -15 -30 -9l-51 14v-116h116l-14 51q-6 21 9 30q4 3 11 3t15 -6z" />
    <glyph glyph-name="lessequal" unicode="&#x2264;" 
d="M750 350l-176 -133q-8 -6 -15 -5.5t-11 3.5q-15 10 -9 31l14 50h-116v-114l51 14q21 6 30 -9q3 -4 3 -11t-6 -15l-130 -176l-133 176q-6 8 -5.5 15t3.5 11q10 15 31 9l50 -14v114h-114l14 -50q6 -21 -9 -31q-4 -3 -11 -3.5t-15 5.5l-176 133l176 130q8 6 15 6t11 -3
q15 -9 9 -30l-14 -51h114v116l-50 -14q-21 -6 -31 9q-3 4 -3.5 11t5.5 15l133 176l130 -176q6 -8 6 -15t-3 -11q-9 -15 -30 -9l-51 14v-116h116l-14 51q-6 21 9 30q4 3 11 3t15 -6z" />
    <glyph glyph-name="greaterequal" unicode="&#x2265;" 
d="M750 350l-176 -133q-8 -6 -15 -5.5t-11 3.5q-15 10 -9 31l14 50h-116v-114l51 14q21 6 30 -9q3 -4 3 -11t-6 -15l-130 -176l-133 176q-6 8 -5.5 15t3.5 11q10 15 31 9l50 -14v114h-114l14 -50q6 -21 -9 -31q-4 -3 -11 -3.5t-15 5.5l-176 133l176 130q8 6 15 6t11 -3
q15 -9 9 -30l-14 -51h114v116l-50 -14q-21 -6 -31 9q-3 4 -3.5 11t5.5 15l133 176l130 -176q6 -8 6 -15t-3 -11q-9 -15 -30 -9l-51 14v-116h116l-14 51q-6 21 9 30q4 3 11 3t15 -6z" />
    <glyph glyph-name="yen" unicode="&#xa5;" horiz-adv-x="496" 
d="M481 700l-175 -453v-28h105v-107h-105v-112h-117v112h-105v107h105v26l-174 455h138l46 -142q6 -20 14 -44t15 -48t12.5 -45.5t8.5 -35.5q3 15 9 36t13 45t14.5 48t13.5 44l46 142h136z" />
    <glyph glyph-name="mu" unicode="&#xb5;" horiz-adv-x="730" 
d="M710 347l-196 -148q-9 -5 -16.5 -5t-12.5 3q-17 12 -10 35l16 55h-252l16 -55q7 -23 -10 -35q-5 -3 -12.5 -3t-16.5 5l-196 148l196 145q9 7 16.5 6.5t12.5 -3.5q17 -11 10 -33l-16 -57h252l-16 57q-7 22 10 33q5 3 12.5 3.5t16.5 -6.5z" />
    <glyph glyph-name="partialdiff" unicode="&#x2202;" horiz-adv-x="408" 
d="M353 210q3 -5 3.5 -12.5t-6.5 -16.5l-145 -196l-148 196q-5 9 -5 16.5t3 12.5q12 17 35 10l55 -16v292l-55 -16q-23 -7 -35 10q-3 5 -3 12.5t5 16.5l148 196l145 -196q7 -9 6.5 -16.5t-3.5 -12.5q-11 -17 -33 -10l-57 16v-292l57 16q22 7 33 -10z" />
    <glyph glyph-name="summation" unicode="&#x2211;" 
d="M750 350l-176 -133q-8 -6 -15 -5.5t-11 3.5q-15 10 -9 31l14 50h-116v-114l51 14q21 6 30 -9q3 -4 3 -11t-6 -15l-130 -176l-133 176q-6 8 -5.5 15t3.5 11q10 15 31 9l50 -14v114h-114l14 -50q6 -21 -9 -31q-4 -3 -11 -3.5t-15 5.5l-176 133l176 130q8 6 15 6t11 -3
q15 -9 9 -30l-14 -51h114v116l-50 -14q-21 -6 -31 9q-3 4 -3.5 11t5.5 15l133 176l130 -176q6 -8 6 -15t-3 -11q-9 -15 -30 -9l-51 14v-116h116l-14 51q-6 21 9 30q4 3 11 3t15 -6z" />
    <glyph glyph-name="product" unicode="&#x220f;" 
d="M750 350l-176 -133q-8 -6 -15 -5.5t-11 3.5q-15 10 -9 31l14 50h-116v-114l51 14q21 6 30 -9q3 -4 3 -11t-6 -15l-130 -176l-133 176q-6 8 -5.5 15t3.5 11q10 15 31 9l50 -14v114h-114l14 -50q6 -21 -9 -31q-4 -3 -11 -3.5t-15 5.5l-176 133l176 130q8 6 15 6t11 -3
q15 -9 9 -30l-14 -51h114v116l-50 -14q-21 -6 -31 9q-3 4 -3.5 11t5.5 15l133 176l130 -176q6 -8 6 -15t-3 -11q-9 -15 -30 -9l-51 14v-116h116l-14 51q-6 21 9 30q4 3 11 3t15 -6z" />
    <glyph glyph-name="pi" unicode="&#x3c0;" horiz-adv-x="646" 
d="M596 350q0 -82 -21 -148.5t-58 -114t-88 -73t-111 -25.5t-111 25.5t-88 73t-58 114t-21 148.5t21 148.5t58 114t88 73t111 25.5t111 -25.5t88 -73t58 -114t21 -148.5zM535 348q0 68 -15.5 124.5t-44 96.5t-68.5 62t-89 22q-50 0 -90 -21.5t-68.5 -61t-43.5 -95
t-15 -123.5t15.5 -124.5t44 -96.5t69 -62t90.5 -22q49 0 89 21.5t68 61t43 95t15 123.5zM452 421q0 -32 -10.5 -55.5t-28 -39t-40.5 -23.5t-48 -8h-32v-141h-70v392h105q56 0 90 -31t34 -94zM382 420q0 25 -13.5 41.5t-44.5 16.5h-31v-115h35q27 0 40.5 15t13.5 42z" />
    <glyph glyph-name="integral" unicode="&#x222b;" horiz-adv-x="464" 
d="M409 0h-118v36q-20 -21 -46 -34t-55 -13q-74 0 -113.5 66.5t-39.5 206.5q0 60 9.5 110.5t29 86.5t50.5 56.5t74 20.5q26 0 50 -11t41 -29v29h118v-525zM291 143v238q-12 17 -31 31t-44 14q-16 0 -27 -8t-18 -26.5t-10.5 -49t-3.5 -76.5q0 -87 12 -127t49 -40q22 0 42 14
t31 30z" />
    <glyph glyph-name="ordfeminine" unicode="&#xaa;" horiz-adv-x="396" 
d="M339 277h-95v29q-15 -19 -35.5 -28.5t-40.5 -9.5q-57 0 -91.5 39.5t-34.5 108.5q0 66 36.5 104t93.5 38q29 0 43.5 -4.5t28.5 -12.5v32q0 23 -11 38t-40 15q-27 0 -46.5 -6t-39.5 -20l-39 69q29 20 60.5 31t70.5 11q75 0 107.5 -36t32.5 -106v-292zM244 388v68
q-12 10 -24 15.5t-35 5.5q-20 0 -33 -16.5t-13 -42.5q0 -65 49 -65q17 0 32 10t24 25z" />
    <glyph glyph-name="ordmasculine" unicode="&#xba;" horiz-adv-x="398" 
d="M360 490q0 -109 -44.5 -165.5t-116.5 -56.5t-116.5 56t-44.5 164q0 109 45 166t117 57t116 -56.5t44 -164.5zM263 488q0 60 -15 96t-50 36t-49 -35t-14 -95t15 -95.5t50 -35.5q17 0 29 10t19.5 27.5t11 41t3.5 50.5z" />
    <glyph glyph-name="Omega" unicode="&#x2126;" horiz-adv-x="408" 
d="M353 490q-11 -17 -33 -10l-57 16v-496h-118v496l-55 -16q-23 -7 -35 10q-3 5 -3 12.5t5 16.5l148 196l145 -196q7 -9 6.5 -16.5t-3.5 -12.5z" />
    <glyph glyph-name="ae" unicode="&#xe6;" horiz-adv-x="691" 
d="M656 262q0 -11 -0.5 -22t-1.5 -22h-265q4 -61 26.5 -89t57.5 -28q32 0 48.5 11.5t33.5 34.5l84 -63q-29 -48 -72.5 -71.5t-95.5 -23.5q-48 0 -81 20t-56 56q-35 -40 -71 -58t-81 -18q-69 0 -112 49t-43 134q0 40 12 72.5t33.5 55t51 35t64.5 12.5t53 -5t35 -16v40
q0 28 -14 46.5t-49 18.5q-33 0 -57 -7.5t-49 -24.5l-48 86q36 25 75 38t87 13q27 0 47 -5t34 -13t24 -19.5t18 -24.5q20 26 48.5 44t71.5 18q49 0 85.5 -22.5t60 -60.5t35 -87.5t11.5 -103.5zM538 315q-2 24 -7 45t-13.5 36.5t-22 24.5t-32.5 9q-65 0 -74 -115h149zM276 138
v84q-14 12 -29.5 18.5t-42.5 6.5q-25 0 -41 -20t-16 -53q0 -38 15.5 -59t44.5 -21q21 0 39.5 12.5t29.5 31.5z" />
    <glyph glyph-name="oslash" unicode="&#xf8;" horiz-adv-x="468" 
d="M433 263q0 -66 -14.5 -117.5t-41 -86t-63 -52.5t-80.5 -18q-29 0 -56 8l-18 -47h-92l35 94q-32 34 -50 88t-18 129q0 66 14.5 117.5t41 86.5t63.5 53t81 18q28 0 55 -8l17 47h92l-37 -91q34 -35 52.5 -90t18.5 -131zM253 429q-9 3 -20 3q-45 0 -63.5 -45.5t-18.5 -123.5
q0 -25 1.5 -46.5t6.5 -39.5zM317 261q0 48 -8 88l-94 -253q9 -3 20 -3q22 0 37.5 13.5t25.5 36t14.5 53t4.5 65.5z" />
    <glyph glyph-name="questiondown" unicode="&#xbf;" horiz-adv-x="444" 
d="M324 630q0 -33 -24 -57t-57 -24t-57 24t-24 57t24 57t57 24t57 -24t24 -57zM435 103q-38 -53 -87.5 -83.5t-122.5 -30.5q-42 0 -77.5 11t-62 34t-41.5 57.5t-15 81.5q0 61 26 100.5t68 73.5q31 25 46 57t15 86h118q0 -41 -5 -72.5t-17.5 -58t-33 -49.5t-51.5 -47
q-19 -15 -30.5 -36.5t-11.5 -42.5q0 -32 20.5 -52t63.5 -20q32 0 60.5 18.5t54.5 51.5z" />
    <glyph glyph-name="exclamdown" unicode="&#xa1;" horiz-adv-x="265" 
d="M214 619q0 -33 -24 -57t-57 -24t-57 24t-24 57t24 57t57 24t57 -24t24 -57zM195 -11h-125v336l19 154h87l19 -154v-336z" />
    <glyph glyph-name="logicalnot" unicode="&#xac;" horiz-adv-x="580" 
d="M560 347l-196 -148q-9 -5 -16.5 -5t-12.5 3q-17 12 -10 35l16 55h-296v118h296l-16 57q-7 22 10 33q5 3 12.5 3.5t16.5 -6.5z" />
    <glyph glyph-name="radical" unicode="&#x221a;" horiz-adv-x="524" 
d="M509 700l-231 -700h-133l-123 340h127l29 -98q9 -31 18.5 -66t14.5 -60q7 28 17.5 64t19.5 66l138 454h123z" />
    <glyph glyph-name="florin" unicode="&#x192;" horiz-adv-x="363" 
d="M333 593q-35 11 -67 11q-25 0 -37 -11t-12 -40v-31h94v-109h-94v-550l-118 -59v609h-53v109h53v48q0 36 10.5 62.5t28.5 43t42.5 24.5t53.5 8q31 0 54.5 -4t44.5 -11v-100z" />
    <glyph glyph-name="approxequal" unicode="&#x2248;" horiz-adv-x="408" 
d="M353 210q3 -5 3.5 -12.5t-6.5 -16.5l-145 -196l-148 196q-5 9 -5 16.5t3 12.5q12 17 35 10l55 -16v496h118v-496l57 16q22 7 33 -10z" />
    <glyph glyph-name="Delta" unicode="&#x2206;" horiz-adv-x="580" 
d="M535 287h-296l16 -55q7 -23 -10 -35q-5 -3 -12.5 -3t-16.5 5l-196 148l196 145q9 7 16.5 6.5t12.5 -3.5q17 -11 10 -33l-16 -57h296v-118z" />
    <glyph glyph-name="guillemotleft" unicode="&#xab;" horiz-adv-x="510" 
d="M475 0h-118l-135 262l135 263h118l-130 -262zM273 0h-118l-135 262l135 263h118l-130 -262z" />
    <glyph glyph-name="guillemotright" unicode="&#xbb;" horiz-adv-x="510" 
d="M490 263l-135 -263h-118l130 262l-130 263h118zM288 263l-135 -263h-118l130 262l-130 263h118z" />
    <glyph glyph-name="ellipsis" unicode="&#x2026;" horiz-adv-x="738" 
d="M698 72q0 -34 -24.5 -58.5t-58.5 -24.5t-58.5 24.5t-24.5 58.5t24.5 58.5t58.5 24.5t58.5 -24.5t24.5 -58.5zM452 72q0 -34 -24.5 -58.5t-58.5 -24.5t-58.5 24.5t-24.5 58.5t24.5 58.5t58.5 24.5t58.5 -24.5t24.5 -58.5zM206 72q0 -34 -24.5 -58.5t-58.5 -24.5
t-58.5 24.5t-24.5 58.5t24.5 58.5t58.5 24.5t58.5 -24.5t24.5 -58.5z" />
    <glyph glyph-name="nonbreakingspace" unicode="&#xa0;" horiz-adv-x="115" 
 />
    <glyph glyph-name="Agrave" unicode="&#xc0;" horiz-adv-x="536" 
d="M508 0h-129l-33 146h-157l-33 -146h-128l179 700h122zM319 263l-19 83q-5 20 -10 44.5t-9.5 48t-8 44t-5.5 33.5q-2 -14 -5.5 -33.5t-7.5 -42.5t-9 -47t-10 -45l-19 -85h103zM323 745h-97l-145 160h155z" />
    <glyph glyph-name="Atilde" unicode="&#xc3;" horiz-adv-x="536" 
d="M508 0h-129l-33 146h-157l-33 -146h-128l179 700h122zM319 263l-19 83q-5 20 -10 44.5t-9.5 48t-8 44t-5.5 33.5q-2 -14 -5.5 -33.5t-7.5 -42.5t-9 -47t-10 -45l-19 -85h103zM434 872q0 -60 -27 -95t-71 -35q-27 0 -44 6.5t-42 21.5q-20 12 -28 15t-17 3q-12 0 -18 -9.5
t-10 -33.5h-77q0 60 27 95t71 35q13 0 23.5 -1.5t20 -5t19.5 -9t23 -12.5q20 -12 28 -15t17 -3q12 0 18 9.5t10 33.5h77z" />
    <glyph glyph-name="Otilde" unicode="&#xd5;" horiz-adv-x="545" 
d="M505 351q0 -76 -13.5 -142t-42 -115t-72.5 -77t-105 -28t-105 28t-72 76.5t-41.5 114.5t-13.5 141q0 76 13.5 142t42 115t73 77t105.5 28t104.5 -28t71.5 -76.5t41.5 -114.5t13.5 -141zM377 349q0 112 -24.5 174.5t-80.5 62.5q-57 0 -80.5 -61.5t-23.5 -173.5
t24.5 -174.5t81.5 -62.5q56 0 79.5 61.5t23.5 173.5zM440 872q0 -60 -27 -95t-71 -35q-27 0 -44 6.5t-42 21.5q-20 12 -28 15t-17 3q-12 0 -18 -9.5t-10 -33.5h-77q0 60 27 95t71 35q13 0 23.5 -1.5t20 -5t19.5 -9t23 -12.5q20 -12 28 -15t17 -3q12 0 18 9.5t10 33.5h77z
" />
    <glyph glyph-name="OE" unicode="&#x152;" horiz-adv-x="781" 
d="M738 0h-335v65q-23 -37 -55 -56.5t-81 -19.5q-59 0 -101.5 28t-70.5 76.5t-41.5 114.5t-13.5 141q0 76 13.5 142t42 115t71.5 77t102 28q51 0 81.5 -20.5t52.5 -55.5v65h326v-120h-234v-148h157v-118h-157v-194h243v-120zM377 349q0 112 -24.5 174.5t-80.5 62.5
q-57 0 -80.5 -61.5t-23.5 -173.5t24.5 -174.5t81.5 -62.5q56 0 79.5 61.5t23.5 173.5z" />
    <glyph glyph-name="oe" unicode="&#x153;" horiz-adv-x="728" 
d="M693 262q0 -11 -0.5 -22t-1.5 -22h-265q4 -61 26.5 -89t57.5 -28q32 0 48.5 11.5t33.5 34.5l84 -63q-29 -48 -72.5 -71.5t-95.5 -23.5t-85 23.5t-53 58.5q-20 -35 -53 -58.5t-83 -23.5q-44 0 -81 17.5t-63 52t-40.5 85.5t-14.5 117t14.5 117.5t41 86.5t63.5 53t81 18
q46 0 81.5 -21t53.5 -59q21 37 53.5 58.5t77.5 21.5q49 0 85.5 -22.5t60 -60.5t35 -87.5t11.5 -103.5zM575 315q-2 24 -7 45t-13.5 36.5t-22 24.5t-32.5 9q-65 0 -74 -115h149zM313 261q0 73 -19 118t-61 45q-43 0 -60.5 -43.5t-17.5 -117.5t18.5 -118t61.5 -44
q21 0 36 12.5t24 34.5t13.5 51t4.5 62z" />
    <glyph glyph-name="endash" unicode="&#x2013;" horiz-adv-x="420" 
d="M375 299h-330v128h330v-128z" />
    <glyph glyph-name="emdash" unicode="&#x2014;" horiz-adv-x="550" 
d="M505 299h-460v128h460v-128z" />
    <glyph glyph-name="quotedblleft" unicode="&#x201c;" horiz-adv-x="485" 
d="M423 700l-13 -253h-140l72 253h81zM198 700l-13 -253h-140l72 253h81z" />
    <glyph glyph-name="quotedblright" unicode="&#x201d;" horiz-adv-x="485" 
d="M440 700l-72 -253h-81l13 253h140zM215 700l-72 -253h-81l13 253h140z" />
    <glyph glyph-name="quoteleft" unicode="&#x2018;" horiz-adv-x="260" 
d="M198 700l-13 -253h-140l72 253h81z" />
    <glyph glyph-name="quoteright" unicode="&#x2019;" horiz-adv-x="260" 
d="M215 700l-72 -253h-81l13 253h140z" />
    <glyph glyph-name="divide" unicode="&#xf7;" 
d="M750 350l-176 -133q-8 -6 -15 -5.5t-11 3.5q-15 10 -9 31l14 50h-116v-114l51 14q21 6 30 -9q3 -4 3 -11t-6 -15l-130 -176l-133 176q-6 8 -5.5 15t3.5 11q10 15 31 9l50 -14v114h-114l14 -50q6 -21 -9 -31q-4 -3 -11 -3.5t-15 5.5l-176 133l176 130q8 6 15 6t11 -3
q15 -9 9 -30l-14 -51h114v116l-50 -14q-21 -6 -31 9q-3 4 -3.5 11t5.5 15l133 176l130 -176q6 -8 6 -15t-3 -11q-9 -15 -30 -9l-51 14v-116h116l-14 51q-6 21 9 30q4 3 11 3t15 -6z" />
    <glyph glyph-name="lozenge" unicode="&#x25ca;" 
d="M750 350l-176 -133q-8 -6 -15 -5.5t-11 3.5q-15 10 -9 31l14 50h-116v-114l51 14q21 6 30 -9q3 -4 3 -11t-6 -15l-130 -176l-133 176q-6 8 -5.5 15t3.5 11q10 15 31 9l50 -14v114h-114l14 -50q6 -21 -9 -31q-4 -3 -11 -3.5t-15 5.5l-176 133l176 130q8 6 15 6t11 -3
q15 -9 9 -30l-14 -51h114v116l-50 -14q-21 -6 -31 9q-3 4 -3.5 11t5.5 15l133 176l130 -176q6 -8 6 -15t-3 -11q-9 -15 -30 -9l-51 14v-116h116l-14 51q-6 21 9 30q4 3 11 3t15 -6z" />
    <glyph glyph-name="ydieresis" unicode="&#xff;" horiz-adv-x="452" 
d="M432 525l-200 -710h-109l53 194l-156 516h124l49 -196q5 -20 11 -44.5t11 -48.5t9.5 -44.5t6.5 -31.5q2 11 6 32t9 45t10 48.5t9 42.5l44 197h123zM390 662q0 -29 -21 -50t-50 -21q-15 0 -28 5.5t-22.5 15.5t-15.5 23t-6 27q0 29 21.5 50.5t50.5 21.5q14 0 27 -6
t22.5 -15.5t15.5 -22.5t6 -28zM199 662q0 -29 -21 -50t-50 -21q-15 0 -28 5.5t-22.5 15.5t-15.5 23t-6 27q0 29 21.5 50.5t50.5 21.5q14 0 27 -6t22.5 -15.5t15.5 -22.5t6 -28z" />
    <glyph glyph-name="Ydieresis" unicode="&#x178;" horiz-adv-x="520" 
d="M503 700l-181 -436v-264h-125v262l-180 438h138l54 -142q9 -23 17 -46.5t15 -45.5t12.5 -40.5t7.5 -30.5q3 12 8 31t12 41t15.5 45.5t16.5 45.5l54 142h136zM427 811q0 -29 -21 -50t-50 -21q-15 0 -28 5.5t-22.5 15.5t-15.5 23t-6 27q0 29 21.5 50.5t50.5 21.5
q14 0 27 -6t22.5 -15.5t15.5 -22.5t6 -28zM236 811q0 -29 -21 -50t-50 -21q-15 0 -28 5.5t-22.5 15.5t-15.5 23t-6 27q0 29 21.5 50.5t50.5 21.5q14 0 27 -6t22.5 -15.5t15.5 -22.5t6 -28z" />
    <glyph glyph-name="fraction" unicode="&#x2044;" horiz-adv-x="420" 
d="M472 700l-389 -700h-135l389 700h135z" />
    <glyph glyph-name="Euro" unicode="&#x20ac;" horiz-adv-x="500" 
d="M164 373v-22v-25h181v-87h-173q21 -130 97 -130q16 0 28.5 4.5t23 16t20 30.5t19.5 49l108 -46q-25 -87 -74.5 -130.5t-131.5 -43.5q-56 0 -97.5 28t-69.5 76.5t-41.5 114.5t-13.5 141q0 76 14 142t42.5 115t71.5 77t101 28q45 0 77 -12.5t55.5 -35t39 -54t26.5 -70.5
l-117 -38q-13 44 -32.5 67t-55.5 23q-73 0 -91 -131h174v-87h-181z" />
    <glyph glyph-name="guilsinglleft" unicode="&#x2039;" horiz-adv-x="308" 
d="M273 0h-118l-135 262l135 263h118l-130 -262z" />
    <glyph glyph-name="guilsinglright" unicode="&#x203a;" horiz-adv-x="308" 
d="M288 263l-135 -263h-118l130 262l-130 263h118z" />
    <glyph glyph-name="fi" unicode="&#xfb01;" horiz-adv-x="548" 
d="M504 651q0 -31 -22 -53t-53 -22t-53 22t-22 53t22 53t53 22t53 -22t22 -53zM300 609q-21 10 -53 10q-25 0 -35.5 -11t-10.5 -40v-43h84v-112h-84v-413h-118v413h-53v112h53v63q0 36 10 62.5t27.5 43t40.5 24.5t50 8q31 0 51.5 -3.5t37.5 -11.5v-102zM488 0h-118v525h118
v-525z" />
    <glyph glyph-name="fl" unicode="&#xfb02;" horiz-adv-x="548" 
d="M488 0h-118v670l118 59v-729zM300 609q-21 10 -53 10q-25 0 -35.5 -11t-10.5 -40v-43h84v-112h-84v-413h-118v413h-53v112h53v63q0 36 10 62.5t27.5 43t40.5 24.5t50 8q31 0 51.5 -3.5t37.5 -11.5v-102z" />
    <glyph glyph-name="daggerdbl" unicode="&#x2021;" horiz-adv-x="464" 
d="M432 110h-145v-210h-120v210h-135v121h135v137h-135v121h135v211h120v-211h145v-121h-145v-137h145v-121z" />
    <glyph glyph-name="periodcentered" unicode="&#xb7;" horiz-adv-x="246" 
d="M206 367q0 -34 -24.5 -58.5t-58.5 -24.5t-58.5 24.5t-24.5 58.5t24.5 58.5t58.5 24.5t58.5 -24.5t24.5 -58.5z" />
    <glyph glyph-name="quotesinglbase" unicode="&#x201a;" horiz-adv-x="260" 
d="M215 147l-72 -253h-81l13 253h140z" />
    <glyph glyph-name="quotedblbase" unicode="&#x201e;" horiz-adv-x="485" 
d="M440 147l-72 -253h-81l13 253h140zM215 147l-72 -253h-81l13 253h140z" />
    <glyph glyph-name="perthousand" unicode="&#x2030;" horiz-adv-x="1230" 
d="M346 494q0 -100 -41.5 -159t-119.5 -59t-118 58t-40 158q0 102 40.5 160.5t119.5 58.5q81 0 120 -58.5t39 -158.5zM660 700l-359 -700h-101l359 700h101zM1205 207q0 -100 -41.5 -159t-119.5 -59t-118 58t-40 158q0 102 40.5 160.5t119.5 58.5q81 0 120 -58.5t39 -158.5z
M834 207q0 -100 -41.5 -159t-119.5 -59t-118 58t-40 158q0 102 40.5 160.5t119.5 58.5q81 0 120 -58.5t39 -158.5zM244 492q0 63 -12 96t-46 33t-45.5 -32t-11.5 -95t12 -96t46 -33t45.5 35t11.5 92zM1103 205q0 63 -12 96t-46 33t-45.5 -32t-11.5 -95t12 -96t46 -33
t45.5 35t11.5 92zM732 205q0 63 -12 96t-46 33t-45.5 -32t-11.5 -95t12 -96t46 -33t45.5 35t11.5 92z" />
    <glyph glyph-name="Acircumflex" unicode="&#xc2;" horiz-adv-x="536" 
d="M508 0h-129l-33 146h-157l-33 -146h-128l179 700h122zM319 263l-19 83q-5 20 -10 44.5t-9.5 48t-8 44t-5.5 33.5q-2 -14 -5.5 -33.5t-7.5 -42.5t-9 -47t-10 -45l-19 -85h103zM431 740h-88l-77 73l-77 -73h-86l109 160h110z" />
    <glyph glyph-name="Ecircumflex" unicode="&#xca;" horiz-adv-x="476" 
d="M433 0h-368v700h359v-120h-234v-148h157v-118h-157v-194h243v-120zM405 745h-88l-77 73l-77 -73h-86l109 160h110z" />
    <glyph glyph-name="Aacute" unicode="&#xc1;" horiz-adv-x="536" 
d="M508 0h-129l-33 146h-157l-33 -146h-128l179 700h122zM319 263l-19 83q-5 20 -10 44.5t-9.5 48t-8 44t-5.5 33.5q-2 -14 -5.5 -33.5t-7.5 -42.5t-9 -47t-10 -45l-19 -85h103zM450 905l-145 -160h-97l87 160h155z" />
    <glyph glyph-name="Edieresis" unicode="&#xcb;" horiz-adv-x="476" 
d="M433 0h-368v700h359v-120h-234v-148h157v-118h-157v-194h243v-120zM405 816q0 -29 -21 -50t-50 -21q-15 0 -28 5.5t-22.5 15.5t-15.5 23t-6 27q0 29 21.5 50.5t50.5 21.5q14 0 27 -6t22.5 -15.5t15.5 -22.5t6 -28zM214 816q0 -29 -21 -50t-50 -21q-15 0 -28 5.5
t-22.5 15.5t-15.5 23t-6 27q0 29 21.5 50.5t50.5 21.5q14 0 27 -6t22.5 -15.5t15.5 -22.5t6 -28z" />
    <glyph glyph-name="Egrave" unicode="&#xc8;" horiz-adv-x="476" 
d="M433 0h-368v700h359v-120h-234v-148h157v-118h-157v-194h243v-120zM297 745h-97l-145 160h155z" />
    <glyph glyph-name="Iacute" unicode="&#xcd;" horiz-adv-x="265" 
d="M195 0h-125v700h125v-700zM319 905l-145 -160h-97l87 160h155z" />
    <glyph glyph-name="Icircumflex" unicode="&#xce;" horiz-adv-x="265" 
d="M195 0h-125v700h125v-700zM298 738h-88l-77 73l-77 -73h-86l109 160h110z" />
    <glyph glyph-name="Idieresis" unicode="&#xcf;" horiz-adv-x="265" 
d="M195 0h-125v700h125v-700zM298 816q0 -29 -21 -50t-50 -21q-15 0 -28 5.5t-22.5 15.5t-15.5 23t-6 27q0 29 21.5 50.5t50.5 21.5q14 0 27 -6t22.5 -15.5t15.5 -22.5t6 -28zM107 816q0 -29 -21 -50t-50 -21q-15 0 -28 5.5t-22.5 15.5t-15.5 23t-6 27q0 29 21.5 50.5
t50.5 21.5q14 0 27 -6t22.5 -15.5t15.5 -22.5t6 -28z" />
    <glyph glyph-name="Igrave" unicode="&#xcc;" horiz-adv-x="265" 
d="M195 0h-125v700h125v-700zM189 745h-97l-145 160h155z" />
    <glyph glyph-name="Oacute" unicode="&#xd3;" horiz-adv-x="545" 
d="M505 351q0 -76 -13.5 -142t-42 -115t-72.5 -77t-105 -28t-105 28t-72 76.5t-41.5 114.5t-13.5 141q0 76 13.5 142t42 115t73 77t105.5 28t104.5 -28t71.5 -76.5t41.5 -114.5t13.5 -141zM377 349q0 112 -24.5 174.5t-80.5 62.5q-57 0 -80.5 -61.5t-23.5 -173.5
t24.5 -174.5t81.5 -62.5q56 0 79.5 61.5t23.5 173.5zM446 905l-145 -160h-97l87 160h155z" />
    <glyph glyph-name="Ocircumflex" unicode="&#xd4;" horiz-adv-x="545" 
d="M505 351q0 -76 -13.5 -142t-42 -115t-72.5 -77t-105 -28t-105 28t-72 76.5t-41.5 114.5t-13.5 141q0 76 13.5 142t42 115t73 77t105.5 28t104.5 -28t71.5 -76.5t41.5 -114.5t13.5 -141zM377 349q0 112 -24.5 174.5t-80.5 62.5q-57 0 -80.5 -61.5t-23.5 -173.5
t24.5 -174.5t81.5 -62.5q56 0 79.5 61.5t23.5 173.5zM433 740h-88l-77 73l-77 -73h-86l109 160h110z" />
    <glyph glyph-name="apple" unicode="&#xf8ff;" 
d="M750 350l-176 -133q-8 -6 -15 -5.5t-11 3.5q-15 10 -9 31l14 50h-116v-114l51 14q21 6 30 -9q3 -4 3 -11t-6 -15l-130 -176l-133 176q-6 8 -5.5 15t3.5 11q10 15 31 9l50 -14v114h-114l14 -50q6 -21 -9 -31q-4 -3 -11 -3.5t-15 5.5l-176 133l176 130q8 6 15 6t11 -3
q15 -9 9 -30l-14 -51h114v116l-50 -14q-21 -6 -31 9q-3 4 -3.5 11t5.5 15l133 176l130 -176q6 -8 6 -15t-3 -11q-9 -15 -30 -9l-51 14v-116h116l-14 51q-6 21 9 30q4 3 11 3t15 -6z" />
    <glyph glyph-name="Ograve" unicode="&#xd2;" horiz-adv-x="545" 
d="M505 351q0 -76 -13.5 -142t-42 -115t-72.5 -77t-105 -28t-105 28t-72 76.5t-41.5 114.5t-13.5 141q0 76 13.5 142t42 115t73 77t105.5 28t104.5 -28t71.5 -76.5t41.5 -114.5t13.5 -141zM377 349q0 112 -24.5 174.5t-80.5 62.5q-57 0 -80.5 -61.5t-23.5 -173.5
t24.5 -174.5t81.5 -62.5q56 0 79.5 61.5t23.5 173.5zM324 745h-97l-145 160h155z" />
    <glyph glyph-name="Uacute" unicode="&#xda;" horiz-adv-x="540" 
d="M478 280q0 -68 -11 -122t-35.5 -91.5t-64 -57.5t-97.5 -20q-56 0 -95.5 20.5t-64.5 58.5t-36.5 91.5t-11.5 118.5v422h125v-422q0 -91 20.5 -128t63.5 -37q44 0 63 37t19 128v422h125v-420zM447 895l-145 -160h-97l87 160h155z" />
    <glyph glyph-name="Ucircumflex" unicode="&#xdb;" horiz-adv-x="540" 
d="M478 280q0 -68 -11 -122t-35.5 -91.5t-64 -57.5t-97.5 -20q-56 0 -95.5 20.5t-64.5 58.5t-36.5 91.5t-11.5 118.5v422h125v-422q0 -91 20.5 -128t63.5 -37q44 0 63 37t19 128v422h125v-420zM434 745h-88l-77 73l-77 -73h-86l109 160h110z" />
    <glyph glyph-name="Ugrave" unicode="&#xd9;" horiz-adv-x="540" 
d="M478 280q0 -68 -11 -122t-35.5 -91.5t-64 -57.5t-97.5 -20q-56 0 -95.5 20.5t-64.5 58.5t-36.5 91.5t-11.5 118.5v422h125v-422q0 -91 20.5 -128t63.5 -37q44 0 63 37t19 128v422h125v-420zM325 735h-97l-145 160h155z" />
    <glyph glyph-name="dotlessi" unicode="&#x131;" horiz-adv-x="238" 
d="M178 0h-118v525h118v-525z" />
    <glyph glyph-name="circumflex" unicode="&#x2c6;" horiz-adv-x="400" 
d="M364 595h-88l-77 73l-77 -73h-86l109 160h110z" />
    <glyph glyph-name="tilde" unicode="&#x2dc;" horiz-adv-x="400" 
d="M367 722q0 -60 -27 -95t-71 -35q-27 0 -44 6.5t-42 21.5q-20 12 -28 15t-17 3q-12 0 -18 -9.5t-10 -33.5h-77q0 60 27 95t71 35q13 0 23.5 -1.5t20 -5t19.5 -9t23 -12.5q20 -12 28 -15t17 -3q12 0 18 9.5t10 33.5h77z" />
    <glyph glyph-name="macron" unicode="&#xaf;" horiz-adv-x="400" 
d="M330 610h-260v95h260v-95z" />
    <glyph glyph-name="breve" unicode="&#x2d8;" horiz-adv-x="400" 
d="M360 755q-10 -78 -49 -119t-111 -41q-71 0 -109.5 41t-48.5 119h79q9 -35 26 -52.5t56 -17.5q38 0 55.5 17.5t26.5 52.5h75z" />
    <glyph glyph-name="dotaccent" unicode="&#x2d9;" horiz-adv-x="400" 
d="M271 666q0 -29 -21 -50t-50 -21q-15 0 -28 5.5t-22.5 15.5t-15.5 23t-6 27q0 29 21.5 50.5t50.5 21.5q14 0 27 -6t22.5 -15.5t15.5 -22.5t6 -28z" />
    <glyph glyph-name="ring" unicode="&#x2da;" horiz-adv-x="400" 
d="M319 713q0 -26 -9 -47.5t-25 -37t-38 -24.5t-47 -9q-26 0 -47.5 9t-37.5 24.5t-25 37t-9 47.5q0 25 9 47t25 38t37.5 25t47.5 9q25 0 47 -9t38 -25t25 -38t9 -47zM252 713q0 23 -15 38t-37 15t-37 -15t-15 -38t15 -38t37 -15t37 15t15 38z" />
    <glyph glyph-name="cedilla" unicode="&#xb8;" horiz-adv-x="400" 
d="M319 -106q0 -45 -29.5 -66t-74.5 -21q-39 0 -65 9.5t-51 26.5l21 38q23 -12 38.5 -19t35.5 -7q26 0 37.5 9.5t11.5 26.5q0 28 -26 28q-17 0 -30 -9l-36 14l21 88h57l-12 -54q13 6 36 6q29 0 47.5 -17.5t18.5 -52.5z" />
    <glyph glyph-name="hungarumlaut" unicode="&#x2dd;" horiz-adv-x="400" 
d="M436 755l-145 -160h-94l92 160h147zM246 755l-145 -160h-94l92 160h147z" />
    <glyph glyph-name="ogonek" unicode="&#x2db;" horiz-adv-x="400" 
d="M309 -152q-26 -19 -53.5 -30t-63.5 -11q-41 0 -65.5 21t-24.5 62q0 33 23 60t58 50h60q-18 -19 -30 -33t-18.5 -25t-9.5 -20.5t-3 -20.5q0 -15 7.5 -25t23.5 -10q19 0 34 4.5t37 16.5z" />
    <glyph glyph-name="caron" unicode="&#x2c7;" horiz-adv-x="400" 
d="M364 755l-109 -160h-110l-109 160h88l77 -73l77 73h86z" />
    <glyph glyph-name="Eth" unicode="&#xd0;" horiz-adv-x="545" 
d="M505 351q0 -92 -19 -158.5t-54.5 -109.5t-85.5 -63t-111 -20h-155v309h-50v112h50v279h158q63 0 112.5 -20t84 -62.5t52.5 -108.5t18 -158zM377 349q0 48 -6 90t-21.5 73t-42.5 48.5t-69 17.5h-38v-157h82v-112h-82v-187h38q42 0 69 17.5t42.5 48t21.5 72t6 89.5z" />
    <glyph glyph-name="eth" unicode="&#xf0;" horiz-adv-x="468" 
d="M433 291q0 -162 -49 -232t-150 -70q-44 0 -81 16t-63 46.5t-40.5 76t-14.5 105.5q0 63 15.5 109.5t41 77t59 45.5t68.5 15q32 0 56.5 -10.5t47.5 -35.5q-12 69 -51 116l-49 -47l-58 57l42 41q-28 13 -65 18v92q79 -8 137 -42l44 42l57 -58l-39 -37q92 -107 92 -325z
M313 233q0 66 -20 100.5t-60 34.5q-41 0 -59.5 -33.5t-18.5 -99.5q0 -134 80 -134q40 0 59 36t19 96z" />
    </font>
</defs>
</svg>
